<svg version="1.1" id="Layer_1" xmlns="http://www.w3.org/2000/svg" xmlns:xlink="http://www.w3.org/1999/xlink" x="0px" y="0px"
	 width="100%" viewBox="0 0 798 634" enable-background="new 0 0 798 634" xml:space="preserve">
<path fill="#230303" opacity="1.000000" stroke="none" 
	d="
M581.000000,635.000000 
	C387.333344,635.000000 194.166672,635.000000 1.000000,635.000000 
	C1.000000,423.666656 1.000000,212.333328 1.000000,1.000000 
	C267.000000,1.000000 533.000000,1.000000 799.000000,1.000000 
	C799.000000,212.333328 799.000000,423.666656 799.000000,635.000000 
	C726.500000,635.000000 654.000000,635.000000 581.000000,635.000000 
M445.472351,191.145767 
	C444.965973,191.748978 444.459564,192.352188 443.414825,193.347000 
	C441.015839,195.006348 438.616821,196.665710 435.518402,198.267334 
	C434.139313,199.137192 432.760223,200.007050 431.381134,200.876907 
	C431.571472,201.339401 431.761810,201.801880 431.952148,202.264374 
	C433.960114,201.731796 435.968109,201.199234 438.560791,200.594910 
	C438.942963,200.505478 439.325104,200.416046 440.485443,200.654739 
	C443.444641,199.969879 446.403870,199.285019 449.908051,198.468323 
	C450.271332,198.380234 450.634644,198.292130 451.575226,198.566315 
	C459.145660,196.508286 466.716064,194.450272 475.058746,192.215363 
	C477.509186,191.799194 479.959595,191.383026 483.046173,190.858810 
	C477.860840,199.241364 471.121918,204.365494 462.685272,207.241180 
	C459.492615,208.329437 456.389984,208.954254 455.622223,213.144333 
	C455.021179,216.424637 452.606934,219.742691 457.519958,221.742767 
	C457.902283,221.898422 458.075134,222.927078 458.095581,223.558060 
	C458.318390,230.424133 458.373383,237.247177 453.803314,243.083954 
	C446.691315,252.167313 440.907959,261.770599 439.126984,273.579865 
	C438.508087,277.683502 438.254333,280.605804 441.919556,283.610046 
	C442.274139,284.514801 442.563110,285.452118 442.993164,286.319458 
	C449.024384,298.483307 455.285828,310.540619 460.954926,322.870483 
	C462.191223,325.559326 462.012054,329.370697 461.319672,332.398682 
	C456.500000,353.476959 448.671509,373.822235 445.705078,395.362915 
	C445.939362,395.095886 445.844421,394.731201 445.952881,394.443085 
	C453.377686,374.720612 460.887787,355.029663 468.158417,335.250671 
	C468.938995,333.127167 468.998352,330.263062 468.257538,328.138153 
	C465.036560,318.899597 461.349518,309.824554 457.954529,300.644714 
	C457.422852,299.207123 457.524384,297.535370 457.742218,296.261444 
	C457.887115,296.344635 458.032013,296.427826 458.578308,296.942413 
	C459.656036,298.349518 460.742645,299.749908 461.810150,301.164703 
	C472.931061,315.903625 484.048828,330.644897 495.167877,345.385223 
	C495.900848,346.356903 496.637024,347.326111 497.371704,348.296478 
	C497.678741,348.199371 497.985748,348.102295 498.292755,348.005219 
	C497.839600,344.665466 497.386444,341.325714 496.852020,337.387238 
	C505.911224,341.197357 513.348206,346.519836 519.962524,353.913391 
	C520.847961,353.479767 522.442444,353.112610 522.490417,352.600525 
	C522.657349,350.819763 522.288147,348.988800 522.739807,347.561523 
	C524.743591,349.906250 526.747314,352.251007 528.604492,355.435333 
	C529.042175,359.290466 529.479858,363.145599 529.864502,367.602356 
	C529.784058,367.996582 529.703552,368.390778 529.041931,369.068817 
	C528.770508,370.114563 528.499146,371.160339 528.061523,372.950348 
	C528.188477,373.957184 528.315430,374.964020 528.442383,375.970856 
	C529.051453,376.118652 529.660583,376.266449 530.269653,376.414276 
	C533.028137,368.796967 535.786621,361.179688 538.878662,352.641357 
	C539.806152,355.176941 540.438599,356.967224 541.114136,358.741089 
	C543.354248,364.623444 545.609802,370.499847 548.691772,376.292084 
	C549.527344,375.056946 550.446960,373.869904 551.186340,372.579651 
	C570.632507,338.645050 577.863037,302.360413 573.125854,263.450165 
	C561.246643,165.875290 467.969482,96.046753 371.257935,112.627441 
	C268.028381,130.325592 203.870056,230.449829 230.960342,331.613464 
	C234.903259,346.337585 240.799484,360.267792 248.607285,373.357574 
	C249.281052,374.487122 250.927704,375.036346 252.545868,375.344452 
	C255.111237,368.003693 257.676605,360.662903 260.527863,352.504089 
	C263.433441,360.366333 265.911224,367.071045 268.331970,374.450165 
	C269.505615,376.070282 270.679291,377.690369 271.852936,379.310486 
	C272.220184,379.113159 272.587433,378.915863 272.954681,378.718536 
	C271.777557,374.705078 270.600403,370.691589 269.390930,366.117981 
	C269.333588,365.748566 269.276276,365.379150 269.629517,364.486267 
	C269.464600,362.986938 269.299713,361.487640 269.256134,359.336914 
	C269.357605,358.682159 269.459106,358.027435 270.073639,357.038361 
	C270.222137,356.274200 270.370636,355.510071 270.894226,354.158478 
	C272.912842,351.867371 274.931488,349.576294 277.433411,348.105347 
	C277.326874,349.676056 277.105865,351.251495 277.170319,352.815155 
	C277.195984,353.436981 277.853699,354.032745 278.223633,354.640381 
	C278.669495,354.116760 279.115356,353.593140 280.011475,352.666962 
	C286.918457,347.787415 293.825409,342.907867 301.487061,338.376740 
	C301.593567,339.688507 301.700073,341.000244 301.633301,343.031830 
	C301.539398,344.013367 301.445465,344.994934 300.931793,346.338501 
	C301.070068,347.270172 301.208374,348.201843 301.346680,349.133514 
	C301.680450,349.161591 302.014221,349.189667 302.347961,349.217773 
	C302.822906,348.094574 303.297852,346.971375 304.152588,345.273407 
	C308.447479,339.196350 312.742371,333.119263 317.627502,326.887878 
	C317.994049,326.200378 318.360596,325.512878 319.152618,324.295898 
	C324.925385,317.041016 330.661957,309.756683 336.509857,302.562866 
	C337.390228,301.479889 338.790649,300.819672 340.862305,300.258270 
	C337.557709,309.477570 334.126740,318.654968 331.048370,327.949188 
	C330.381592,329.962341 330.396759,332.596863 331.089142,334.603119 
	C337.565979,353.371002 344.264374,372.062347 350.871918,390.785309 
	C351.182404,391.665100 351.240631,392.633942 351.416321,393.561310 
	C352.104706,393.023407 352.793091,392.485504 353.481476,391.947601 
	C352.117249,385.944733 350.928040,379.895508 349.353821,373.948212 
	C345.605988,359.789001 341.638977,345.687866 337.864838,331.535461 
	C337.367920,329.672058 336.908752,327.486481 337.401031,325.720154 
	C341.890350,309.612366 350.067261,295.264893 359.772461,280.298950 
	C360.043945,279.979828 360.315430,279.660706 361.114868,279.036774 
	C360.557129,276.870972 359.999390,274.705139 359.402252,272.015228 
	C359.299316,271.681244 359.196381,271.347229 359.374542,270.629181 
	C359.058655,269.940002 358.742737,269.250793 358.398987,268.032593 
	C358.303223,267.693665 358.207458,267.354706 358.394775,266.629639 
	C358.083466,265.933197 357.772156,265.236725 357.438080,264.021576 
	C357.346924,263.688629 357.255798,263.355682 357.443726,262.628723 
	C357.154480,261.913818 356.865234,261.198914 356.521973,259.853455 
	C356.373505,259.239319 356.225006,258.625214 356.369415,257.632721 
	C356.078247,256.929504 355.787048,256.226318 355.458405,255.137436 
	C355.458405,255.137436 355.280426,254.793243 355.161194,254.158737 
	C354.385162,253.943909 353.609161,253.729095 352.404388,253.038513 
	C351.843353,252.395233 351.282349,251.751968 350.731873,250.501892 
	C350.218170,249.918335 349.704468,249.334778 348.953949,248.182465 
	C348.493530,247.503998 348.033112,246.825516 347.623138,245.549606 
	C347.113953,244.988297 346.604767,244.426987 345.810150,243.289780 
	C345.063019,242.241653 344.315918,241.193527 343.615326,239.421661 
	C342.896210,237.461426 342.177094,235.501190 341.446381,232.685593 
	C341.923767,228.679749 342.401154,224.673904 343.522064,220.766312 
	C344.095245,220.231506 344.668427,219.696701 345.322906,218.585129 
	C345.271576,218.397873 345.220276,218.210617 345.423584,217.467377 
	C344.402435,214.887192 343.381256,212.307007 342.319000,209.686020 
	C342.319000,209.686020 342.297729,209.632156 342.049042,208.988403 
	C336.987610,206.776230 331.926147,204.564056 326.542328,202.061005 
	C326.542328,202.061005 326.138611,201.901184 325.951965,201.321320 
	C325.273468,200.944977 324.594971,200.568649 323.486908,199.711731 
	C322.269073,198.499557 321.051270,197.287399 319.764191,195.423309 
	C319.163239,194.268311 318.562286,193.113312 318.711121,191.499481 
	C320.332001,191.804993 321.964172,192.060471 323.571960,192.423904 
	C336.839142,195.422958 350.097931,198.459198 363.372009,201.427322 
	C364.639923,201.710831 365.994476,201.606995 367.308777,201.682968 
	C367.419586,201.219620 367.530396,200.756271 367.641174,200.292923 
	C365.759186,199.533859 363.877167,198.774780 361.378052,197.729874 
	C359.879639,196.495758 358.325104,195.322815 356.896088,194.012970 
	C354.815186,192.105576 351.531647,190.856125 353.215027,186.763824 
	C353.210236,186.173843 353.205444,185.583862 353.315674,184.441284 
	C353.389496,184.072311 353.463318,183.703354 353.970978,183.103653 
	C354.021820,182.400543 354.072662,181.697449 354.244293,180.441513 
	C354.316498,180.071259 354.388733,179.701004 355.275574,179.050812 
	C357.282074,178.806305 359.288544,178.561798 361.974579,178.439865 
	C362.663025,178.482849 363.351471,178.525833 364.587952,179.180573 
	C369.296387,179.180573 374.004852,179.180573 378.713287,179.180573 
	C378.714752,178.966599 378.716217,178.752625 378.717651,178.538651 
	C371.084717,176.445541 363.451752,174.352448 355.530121,171.529221 
	C355.558167,171.008423 355.586243,170.487610 356.219757,169.563309 
	C357.215881,166.039536 358.211975,162.515762 359.390930,158.326141 
	C359.775177,156.997910 360.159424,155.669678 361.051453,153.998291 
	C361.411774,152.330124 361.772095,150.661957 362.324371,148.289871 
	C364.513062,144.143600 366.701752,139.997330 369.486053,135.885956 
	C370.108398,135.441010 370.730743,134.996078 372.127258,134.385056 
	C373.964325,134.457932 375.801422,134.530807 378.072632,135.130844 
	C383.257935,136.921158 388.443237,138.711472 394.428284,140.777908 
	C391.253021,142.394257 388.946564,143.568344 386.640076,144.742447 
	C386.890106,145.385559 387.140106,146.028671 387.390106,146.671799 
	C394.036194,144.604385 400.682281,142.536987 407.977844,140.193314 
	C410.562683,138.957230 413.147491,137.721161 416.459259,136.650040 
	C418.417175,135.938522 420.375122,135.227005 423.090637,134.371857 
	C424.630615,134.385193 426.170563,134.398544 428.014740,134.939423 
	C428.757629,135.154678 429.500488,135.369934 430.768768,136.035995 
	C432.339417,138.605743 433.910095,141.175491 435.345825,144.456741 
	C435.968628,145.966248 436.591461,147.475754 437.354675,149.674805 
	C437.760590,151.024506 438.166534,152.374207 438.359406,154.338287 
	C438.645142,154.887207 438.930878,155.436127 439.355286,156.675110 
	C439.768860,158.022476 440.182434,159.369827 440.413361,161.468689 
	C441.232361,165.267380 442.051361,169.066071 442.324554,173.051804 
	C441.972687,173.206467 441.620850,173.361130 440.491699,173.352036 
	C433.782654,175.049316 427.073608,176.746597 420.364532,178.443878 
	C420.402039,178.915909 420.439514,179.387924 420.476990,179.859955 
	C425.428558,179.423096 430.380096,178.986252 436.063660,178.476791 
	C437.042175,178.402954 438.020660,178.329132 439.578888,178.668060 
	C441.439789,179.107986 443.300720,179.547913 445.246918,180.578949 
	C445.344421,180.964615 445.441956,181.350266 445.298920,182.335709 
	C445.565338,182.888458 445.831757,183.441208 446.194092,184.681747 
	C446.362732,185.353790 446.531372,186.025818 446.423004,187.545349 
	C446.325531,188.731476 446.228058,189.917603 446.046143,191.033661 
	C446.046143,191.033661 446.100586,191.128922 445.472351,191.145767 
M390.275330,389.295319 
	C390.395569,388.358704 390.515808,387.422089 391.039459,386.224701 
	C391.039246,385.481140 391.039062,384.737549 391.212219,383.300446 
	C391.323456,382.354462 391.434692,381.408508 391.982666,380.127747 
	C392.027863,379.078857 392.073090,378.029938 392.289215,376.294006 
	C392.411835,375.359131 392.534454,374.424225 393.054565,373.222565 
	C393.052368,372.479218 393.050140,371.735870 393.221710,370.300690 
	C393.336334,369.357208 393.450989,368.413696 393.997925,367.130035 
	C394.040588,366.079926 394.083221,365.029785 394.299835,363.200928 
	C392.883270,360.006714 391.466705,356.812500 389.976135,353.451355 
	C387.657623,355.128967 386.134583,356.230957 384.611572,357.332977 
	C384.398895,357.076630 384.186249,356.820282 383.973572,356.563934 
	C388.644073,347.242645 393.314575,337.921387 397.724487,329.120209 
	C389.474213,323.058929 381.251495,317.315308 373.399414,311.103241 
	C370.241821,308.605164 367.897400,305.079285 365.423645,301.457031 
	C364.961121,299.744232 364.498596,298.031433 364.036072,296.318665 
	C363.622223,296.390839 363.208374,296.463043 362.794525,296.535248 
	C362.794525,297.689697 362.794525,298.844147 362.598206,300.804047 
	C362.681580,310.196930 362.764954,319.589813 362.487061,329.604797 
	C362.748993,331.723663 363.010925,333.842560 363.233063,336.823303 
	C363.423157,338.810486 363.613220,340.797668 363.499756,343.458160 
	C363.749725,344.627014 363.999664,345.795868 364.249878,347.744781 
	C364.455719,348.758881 364.661560,349.773010 364.612549,351.339996 
	C364.834198,351.880920 365.055878,352.421814 365.295013,353.593750 
	C365.415405,353.994690 365.535797,354.395630 365.427765,355.369690 
	C365.687469,355.903564 365.947174,356.437469 366.252258,357.601624 
	C366.381714,358.000519 366.511169,358.399445 366.419983,359.375061 
	C366.688354,359.906372 366.956726,360.437683 367.277313,361.601746 
	C367.420654,361.997498 367.563965,362.393219 367.517700,363.371307 
	C367.780365,363.900513 368.043030,364.429718 368.388733,365.673859 
	C368.823944,367.045807 369.259186,368.417755 369.516052,370.376434 
	C369.790009,370.902496 370.063965,371.428589 370.441406,372.690216 
	C374.147278,383.729279 377.853149,394.768372 381.439514,406.487030 
	C382.144592,408.133759 382.849701,409.780457 383.721771,412.052704 
	C384.143433,413.038116 384.565063,414.023529 384.847015,415.518860 
	C385.149170,415.845276 385.451294,416.171722 385.753418,416.498169 
	C385.854034,415.998047 385.954651,415.497894 386.311005,414.399994 
	C386.407410,413.758636 386.503815,413.117310 387.008118,412.221405 
	C387.009674,411.480286 387.011230,410.739166 387.189362,409.301727 
	C387.297699,408.350891 387.406036,407.400024 387.955322,406.120819 
	C388.002289,405.075470 388.049255,404.030090 388.269135,402.296204 
	C388.385834,401.357819 388.502502,400.419403 389.023651,399.222412 
	C389.024933,398.480194 389.026215,397.737976 389.201813,396.300751 
	C389.310822,395.352295 389.419861,394.403809 389.966766,393.122467 
	C390.012604,392.076111 390.058472,391.029755 390.275330,389.295319 
M405.940552,250.583252 
	C406.877838,250.455261 407.815094,250.327271 408.752380,250.199265 
	C409.179657,250.696732 409.606903,251.194199 410.034180,251.691666 
	C405.992218,255.124847 401.950226,258.558044 396.856384,262.884674 
	C403.987366,264.249023 409.524963,265.308533 415.062561,266.368042 
	C409.218292,268.778564 402.422882,266.460388 398.114349,272.979706 
	C403.524170,274.953339 410.135010,271.707550 413.730194,278.382721 
	C409.820160,279.916962 406.262238,280.892120 403.196045,282.700928 
	C401.751099,283.553345 400.237030,286.182220 400.501007,287.702911 
	C401.524139,293.596619 409.415924,297.162628 414.710449,294.324524 
	C417.026093,293.083221 419.128906,291.355774 421.117432,289.608978 
	C429.000488,282.684265 433.438141,273.731842 436.678070,263.887482 
	C441.696686,248.638718 441.849396,232.936661 442.546356,216.320099 
	C434.485992,219.336853 427.350555,222.454147 419.945862,224.672913 
	C409.157135,227.905701 402.340637,234.008011 401.045624,245.772934 
	C400.611359,249.718292 401.321899,251.131012 405.940552,250.583252 
M410.326996,346.261383 
	C411.748322,349.320129 413.169647,352.378876 414.590973,355.437622 
	C414.241699,355.657623 413.892456,355.877625 413.543182,356.097626 
	C412.436188,355.359955 411.329193,354.622314 409.053009,353.105560 
	C407.699738,357.449066 405.174255,361.365509 405.593658,364.936035 
	C407.379639,380.140839 410.023773,395.245331 412.407654,410.378143 
	C412.562286,411.359955 413.162537,412.271545 414.069336,414.450348 
	C429.845459,376.069672 441.178833,338.282959 436.136566,297.088409 
	C434.572327,300.284668 433.916412,303.928070 431.739166,305.672119 
	C422.689880,312.920776 413.176453,319.589417 403.847809,326.490417 
	C402.369476,327.583984 400.965210,328.777649 399.652802,329.824463 
	C405.990082,333.758209 406.696838,340.536621 410.326996,346.261383 
M504.644958,493.482574 
	C504.644958,498.078430 504.644958,502.674286 504.644958,507.127869 
	C509.969238,507.127869 514.543030,507.127869 519.808960,507.127869 
	C519.808960,500.096802 519.808960,493.451508 519.808960,485.617371 
	C525.979553,492.664551 531.184937,498.692291 536.506348,504.615845 
	C537.554565,505.782654 538.987976,507.245697 540.351013,507.367035 
	C544.437256,507.730804 548.576599,507.497894 552.900085,507.497894 
	C552.900085,491.381500 552.900085,475.812897 552.900085,459.976440 
	C548.058838,459.976440 543.482910,459.976440 538.084839,459.976440 
	C538.084839,467.005402 538.084839,473.817230 538.084839,482.093842 
	C532.628662,475.808655 527.598389,471.233704 524.097534,465.692474 
	C518.973694,457.582367 511.845032,459.978455 504.645050,459.887085 
	C504.645050,471.168396 504.645050,481.828583 504.644958,493.482574 
M277.717407,459.704041 
	C272.680359,458.783417 269.360046,460.978333 266.478058,465.048401 
	C263.313110,469.517975 259.488800,473.520569 255.951813,477.726624 
	C255.507309,477.526215 255.062820,477.325806 254.618317,477.125366 
	C254.618317,471.434906 254.618317,465.744446 254.618317,460.122559 
	C248.910706,460.122559 243.863663,460.122559 239.002869,460.122559 
	C239.002869,476.102325 239.002869,491.661041 239.002869,507.249298 
	C244.324326,507.249298 249.257385,507.249298 254.741898,507.249298 
	C253.946991,500.078674 254.717468,493.740479 262.986084,491.223572 
	C265.520752,495.626862 268.017487,500.127045 270.699280,504.514160 
	C271.414093,505.683563 272.654938,507.300110 273.724182,507.355286 
	C279.273285,507.641327 284.845001,507.488373 291.166077,507.488373 
	C285.839844,498.933258 281.267090,491.200043 276.272888,483.749298 
	C274.146851,480.577515 274.107483,478.487518 276.838074,475.663177 
	C281.478516,470.863342 285.675964,465.635162 290.826233,459.704071 
	C285.906067,459.704071 282.274597,459.704071 277.717407,459.704041 
M317.735107,459.696686 
	C315.617828,459.696686 313.500549,459.696686 311.138306,459.696686 
	C311.138306,475.822266 311.138306,491.395721 311.138306,507.138550 
	C325.372498,507.138550 339.398560,507.138550 353.341797,507.138550 
	C353.341797,503.143036 353.341797,499.555206 353.341797,495.400452 
	C344.449554,495.400452 335.887268,495.400452 327.287292,495.400452 
	C327.287292,492.904694 327.287292,490.997192 327.287292,488.582581 
	C334.657288,488.582581 341.735718,488.582581 348.919708,488.582581 
	C348.919708,484.344086 348.919708,480.624237 348.919708,476.411926 
	C341.500641,476.411926 334.423187,476.411926 327.466125,476.411926 
	C326.196655,472.499329 327.675964,471.599945 330.946381,471.673096 
	C338.213776,471.835663 345.487305,471.723785 352.799988,471.723785 
	C352.799988,467.380768 352.799988,463.757690 352.799988,459.696747 
	C341.291779,459.696747 329.986084,459.696747 317.735107,459.696686 
M641.763672,470.561829 
	C641.763672,482.681488 641.763672,494.801117 641.763672,507.086792 
	C656.227112,507.086792 670.232605,507.086792 684.059082,507.086792 
	C684.059082,503.049316 684.059082,499.466583 684.059082,495.232544 
	C675.156799,495.232544 666.608643,495.232544 658.175171,495.232544 
	C658.175171,492.790894 658.175171,491.019409 658.175171,488.644287 
	C665.498962,488.644287 672.569702,488.644287 679.847717,488.644287 
	C679.847717,484.427734 679.847717,480.819550 679.847717,476.632568 
	C673.903442,476.632568 668.105713,476.793915 662.328247,476.522400 
	C660.828674,476.451996 658.318970,475.227356 658.126099,474.188721 
	C657.514038,470.893402 660.428650,471.767059 662.206970,471.747009 
	C669.317078,471.666626 676.428711,471.713806 683.734985,471.713806 
	C683.734985,467.439392 683.734985,463.833862 683.734985,459.975159 
	C669.778809,459.975159 656.034912,459.975159 641.763794,459.975159 
	C641.763794,463.346832 641.763794,466.468689 641.763672,470.561829 
M464.489288,471.717804 
	C470.269745,471.717804 476.050201,471.717804 481.987915,471.717804 
	C481.987915,467.427124 481.987915,463.725433 481.987915,460.039307 
	C467.875153,460.039307 454.134399,460.039307 440.422791,460.039307 
	C440.422791,475.952789 440.422791,491.526855 440.422791,507.204437 
	C454.646942,507.204437 468.558533,507.204437 482.533569,507.204437 
	C482.533569,503.270752 482.533569,499.673157 482.533569,495.444214 
	C473.731842,495.444214 465.156891,495.444214 456.548523,495.444214 
	C456.548523,492.904724 456.548523,491.013824 456.548523,488.546844 
	C463.935577,488.546844 471.010956,488.546844 478.283417,488.546844 
	C478.283417,484.379913 478.283417,480.799103 478.283417,476.626373 
	C472.093842,476.626373 466.143219,476.527313 460.197968,476.662933 
	C456.541504,476.746338 455.331726,475.502350 456.982300,471.717804 
	C459.189087,471.717804 461.333160,471.717804 464.489288,471.717804 
M591.223572,493.482910 
	C590.239807,492.513397 589.313293,490.786652 588.262207,490.707184 
	C584.022217,490.386627 579.743713,490.574310 575.237915,490.574310 
	C575.282776,497.384338 577.412964,502.471283 583.293091,504.880676 
	C592.551392,508.674255 602.135010,508.926086 611.526672,505.365753 
	C617.587463,503.068146 620.806824,497.621765 620.619141,491.207977 
	C620.433167,484.849823 616.715576,481.045471 611.057129,479.185883 
	C606.651978,477.738251 602.006653,477.037476 597.528259,475.788788 
	C595.631592,475.259949 593.889221,474.177856 591.742676,473.194122 
	C596.463196,468.669403 600.480225,468.820923 603.823120,472.748291 
	C604.567993,473.623352 605.800293,474.552063 606.855286,474.610748 
	C610.797852,474.830139 614.759888,474.698547 618.654419,474.698547 
	C619.118835,469.246277 617.522217,465.368744 613.030273,463.145630 
	C602.714050,458.040070 592.028381,457.783875 581.912537,463.351471 
	C573.462952,468.001984 573.753296,480.052673 582.260498,484.557220 
	C586.000793,486.537689 590.398682,487.299561 594.527893,488.513000 
	C596.914673,489.214386 599.419373,489.550110 601.750610,490.386139 
	C602.639893,490.705078 603.754395,491.975616 603.734558,492.787292 
	C603.716248,493.535370 602.306335,494.879669 601.524536,494.868805 
	C598.292480,494.823944 595.066284,494.364288 591.223572,493.482910 
M376.967560,490.551239 
	C373.768799,490.137268 372.291443,491.627106 373.693970,494.507050 
	C375.312225,497.829956 376.889191,502.197937 379.751831,503.706665 
	C390.300537,509.266235 401.503082,509.609070 412.242920,503.954895 
	C417.445862,501.215759 419.107452,495.972198 418.743164,490.291168 
	C418.411255,485.114807 415.439819,481.505585 410.681152,479.863617 
	C405.836304,478.191895 400.700928,477.370087 395.832062,475.756012 
	C393.970306,475.138794 392.494568,473.357178 390.842926,472.106171 
	C392.896881,471.334595 394.959137,469.954468 397.002228,469.982208 
	C398.664764,470.004791 400.335571,471.665283 401.941772,472.694519 
	C402.820618,473.257660 403.547821,474.559113 404.386780,474.598297 
	C408.630005,474.796417 412.887512,474.689423 417.299622,474.689423 
	C417.479828,469.216919 415.450378,465.366669 411.399750,463.282501 
	C400.954254,457.907867 390.100983,457.774048 379.861359,463.484131 
	C371.675171,468.049133 372.064117,479.825012 380.185730,484.484314 
	C382.732605,485.945435 385.697296,486.766937 388.558014,487.570282 
	C392.234802,488.602753 396.041351,489.176331 399.710846,490.230255 
	C401.938171,490.870026 403.406616,492.439941 400.971466,494.457520 
	C398.128540,496.812927 391.219116,495.412354 388.776703,492.492645 
	C387.986023,491.547455 386.548218,490.779541 385.324341,490.637390 
	C382.860596,490.351318 380.340454,490.550751 376.967560,490.551239 
M218.138046,507.143311 
	C217.914215,505.765259 217.897980,504.312592 217.433578,503.021027 
	C213.833084,493.007599 210.155579,483.021790 206.483536,473.034149 
	C201.484726,459.437744 201.478378,459.532623 186.958130,459.627777 
	C183.960281,459.647430 182.578156,460.577240 181.594864,463.420074 
	C178.280380,473.002655 174.654068,482.477112 171.168610,492.000854 
	C169.366837,496.924072 167.610641,501.863953 165.567810,507.534912 
	C169.434952,507.534912 172.546631,507.476318 175.655121,507.550446 
	C179.168304,507.634216 182.777710,508.166168 183.576202,503.158783 
	C183.680328,502.505829 185.333862,501.698883 186.300949,501.655273 
	C190.118790,501.483063 193.957855,501.444855 197.768982,501.680634 
	C198.818390,501.745575 200.545746,502.807678 200.684555,503.628296 
	C201.400681,507.862030 204.321915,507.663879 207.432999,507.556366 
	C210.755951,507.441467 214.084793,507.496979 218.138046,507.143311 
M150.758575,479.812592 
	C144.515945,479.812592 138.273315,479.812592 131.929626,479.812592 
	C131.929626,476.677521 131.929626,474.433777 131.929626,471.497589 
	C139.705048,471.497589 147.228149,471.497589 154.641922,471.497589 
	C154.641922,467.227844 154.641922,463.659607 154.641922,459.978394 
	C141.546875,459.978394 128.807266,459.978394 116.014870,459.978394 
	C116.014870,475.933868 116.014870,491.606232 116.014870,507.218781 
	C121.360535,507.218781 126.290169,507.218781 131.847321,507.218781 
	C131.847321,501.867645 131.847321,496.818207 131.847321,491.241394 
	C138.866150,491.241394 145.251785,491.241394 151.997833,491.241394 
	C151.816376,487.202362 151.660812,483.739685 150.758575,479.812592 
M372.636597,250.961105 
	C373.894958,251.355438 375.131378,251.855026 376.416138,252.122589 
	C379.239563,252.710556 381.907654,252.548294 382.700470,249.113632 
	C383.449249,245.869568 383.355377,242.489731 379.638184,241.159500 
	C374.744446,239.408249 369.663849,238.179291 364.599152,236.707016 
	C364.726440,242.699692 366.802094,246.541840 372.636597,250.961105 
z"/>
<path fill="#FDAF00" opacity="1.000000" stroke="none" 
	d="
M427.710541,134.411880 
	C426.170563,134.398544 424.630615,134.385193 422.349548,134.293793 
	C419.649780,134.972183 417.691040,135.728638 415.732330,136.485092 
	C413.147491,137.721161 410.562683,138.957230 407.263794,140.246323 
	C403.648010,140.495041 400.571503,141.405151 397.878815,140.746445 
	C391.040405,139.073486 384.373840,136.697937 377.638489,134.603683 
	C375.801422,134.530807 373.964325,134.457932 371.429779,134.346939 
	C370.118347,134.822891 369.504395,135.336975 368.890442,135.851059 
	C366.701752,139.997330 364.513062,144.143600 361.949646,148.870468 
	C361.231140,151.081192 360.887421,152.711319 360.543701,154.341446 
	C360.159424,155.669678 359.775177,156.997910 359.018066,158.885986 
	C357.634888,162.952820 356.624603,166.459808 355.614319,169.966812 
	C355.586243,170.487610 355.558167,171.008423 355.777588,172.227692 
	C359.708893,174.436356 363.392792,175.946533 367.247009,177.526535 
	C366.091431,177.902100 365.065674,178.235458 364.039917,178.568817 
	C363.351471,178.525833 362.663025,178.482849 361.396667,178.124573 
	C358.570038,177.775421 355.663940,174.994644 354.460968,179.330750 
	C354.388733,179.701004 354.316498,180.071259 353.926453,180.934433 
	C353.584778,182.063034 353.560974,182.698700 353.537170,183.334381 
	C353.463318,183.703354 353.389496,184.072311 353.034546,184.837799 
	C352.756378,185.817871 352.759338,186.401428 352.762268,186.984970 
	C351.531647,190.856125 354.815186,192.105576 356.896088,194.012970 
	C358.325104,195.322815 359.879639,196.495758 361.780273,198.147446 
	C362.226776,198.725021 362.306641,198.885391 362.305023,199.044937 
	C362.303497,199.198837 362.195831,199.489594 362.172333,199.485825 
	C357.975311,198.813217 353.720001,198.374237 349.600037,197.376602 
	C339.300476,194.882599 329.071747,192.096848 318.785645,189.544937 
	C317.709015,189.277817 316.438873,189.790787 315.258514,189.941833 
	C315.684448,190.740662 316.110382,191.539490 316.646729,192.653870 
	C317.782532,194.004684 318.807983,195.039963 319.833435,196.075241 
	C321.051270,197.287399 322.269073,198.499557 323.762146,200.265594 
	C324.737762,201.180054 325.438202,201.540619 326.138611,201.901184 
	C326.138611,201.901184 326.542328,202.061005 326.781799,202.529343 
	C332.113403,205.209183 337.205566,207.420670 342.297729,209.632156 
	C342.297729,209.632156 342.319000,209.686020 342.269104,210.087631 
	C343.202454,213.000626 344.185730,215.511993 345.169006,218.023361 
	C345.220276,218.210617 345.271576,218.397873 344.967407,218.866364 
	C344.034088,219.654419 343.456299,220.161240 342.878510,220.668060 
	C342.401154,224.673904 341.923767,228.679749 341.312164,233.491577 
	C341.974884,236.246841 342.771851,238.196121 343.568787,240.145401 
	C344.315918,241.193527 345.063019,242.241653 345.934418,243.880249 
	C346.563354,245.029495 347.068024,245.588272 347.572693,246.147049 
	C348.033112,246.825516 348.493530,247.503998 349.035889,248.784760 
	C349.652344,249.960953 350.186829,250.534821 350.721313,251.108704 
	C351.282349,251.751968 351.843353,252.395233 352.737488,253.552795 
	C353.807190,254.309143 354.543823,254.551193 355.280426,254.793243 
	C355.280426,254.793243 355.458405,255.137436 355.344360,255.664368 
	C355.512390,256.797913 355.794464,257.404510 356.076538,258.011078 
	C356.225006,258.625214 356.373505,259.239319 356.404663,260.508057 
	C356.579773,261.782684 356.872192,262.402710 357.164612,263.022736 
	C357.255798,263.355682 357.346924,263.688629 357.327911,264.618500 
	C357.515717,265.815552 357.813690,266.415649 358.111694,267.015778 
	C358.207458,267.354706 358.303223,267.693665 358.297180,268.633118 
	C358.494720,269.826843 358.794067,270.420013 359.093445,271.013214 
	C359.196381,271.347229 359.299316,271.681244 359.321899,272.703491 
	C359.690033,275.375061 360.138489,277.358307 360.586914,279.341583 
	C360.315430,279.660706 360.043945,279.979828 359.353333,280.960388 
	C352.115540,284.739044 346.329926,289.055389 342.536194,295.455597 
	C340.372345,296.118134 337.973755,296.685608 336.152252,298.033142 
	C325.193787,306.139984 314.951233,315.389282 303.353180,322.413757 
	C288.018402,331.701508 271.629822,339.243256 255.776627,347.690216 
	C254.119202,348.573334 251.891968,350.466034 251.846664,351.948914 
	C251.603531,359.907440 251.967911,367.884491 252.122437,375.855164 
	C250.927704,375.036346 249.281052,374.487122 248.607285,373.357574 
	C240.799484,360.267792 234.903259,346.337585 230.960342,331.613464 
	C203.870056,230.449829 268.028381,130.325592 371.257935,112.627441 
	C467.969482,96.046753 561.246643,165.875290 573.125854,263.450165 
	C577.863037,302.360413 570.632507,338.645050 551.186340,372.579651 
	C550.446960,373.869904 549.527344,375.056946 548.192383,375.910339 
	C547.734375,368.198242 547.642212,360.863556 547.881653,353.539673 
	C547.980591,350.515106 546.662354,349.106445 544.124146,347.883209 
	C516.328430,334.487518 488.807587,320.645691 465.544922,299.796753 
	C463.638550,298.088196 460.658203,297.578033 458.176880,296.511017 
	C458.032013,296.427826 457.887115,296.344635 457.459412,295.764648 
	C452.125610,291.128418 447.074585,286.988983 442.023560,282.849548 
	C438.254333,280.605804 438.508087,277.683502 439.126984,273.579865 
	C440.907959,261.770599 446.691315,252.167313 453.803314,243.083954 
	C458.373383,237.247177 458.318390,230.424133 458.095581,223.558060 
	C458.075134,222.927078 457.902283,221.898422 457.519958,221.742767 
	C452.606934,219.742691 455.021179,216.424637 455.622223,213.144333 
	C456.389984,208.954254 459.492615,208.329437 462.685272,207.241180 
	C471.121918,204.365494 477.860840,199.241364 483.046173,190.858810 
	C479.959595,191.383026 477.509186,191.799194 474.271088,192.197037 
	C465.988251,194.187164 458.493103,196.195602 450.997925,198.204041 
	C450.634644,198.292130 450.271332,198.380234 449.235962,198.377579 
	C445.611664,198.966751 442.659485,199.646683 439.707275,200.326599 
	C439.325104,200.416046 438.942963,200.505478 438.083954,200.428894 
	C437.144012,199.616959 436.680939,198.971008 436.217834,198.325073 
	C438.616821,196.665710 441.015839,195.006348 443.997711,193.138184 
	C445.087250,192.329224 445.593903,191.729065 446.100586,191.128906 
	C446.100586,191.128922 446.046143,191.033661 446.403198,191.008972 
	C446.740173,189.555481 446.720093,188.126663 446.700043,186.697861 
	C446.531372,186.025818 446.362732,185.353790 446.320984,184.174896 
	C446.145081,183.024002 445.842255,182.379974 445.539459,181.735931 
	C445.441956,181.350266 445.344421,180.964615 445.384125,180.030594 
	C444.030579,175.440933 441.469635,177.088654 438.999176,178.255310 
	C438.020660,178.329132 437.042175,178.402954 435.393005,178.335876 
	C434.098694,178.047958 433.475067,177.900986 432.534180,177.679230 
	C435.639648,176.199020 438.454315,174.857422 441.268982,173.515808 
	C441.620850,173.361130 441.972687,173.206467 442.948853,172.967468 
	C445.619720,168.084152 442.245911,164.611588 440.596008,160.717178 
	C440.182434,159.369827 439.768860,158.022476 439.453552,156.160889 
	C439.225372,155.005737 438.898895,154.364822 438.572449,153.723907 
	C438.166534,152.374207 437.760590,151.024506 437.456268,149.092163 
	C436.865479,146.921432 436.173126,145.333344 435.480774,143.745239 
	C433.910095,141.175491 432.339417,138.605743 430.384949,135.512329 
	C429.237610,134.796417 428.474060,134.604141 427.710541,134.411880 
z"/>
<path fill="#F8AB00" opacity="1.000000" stroke="none" 
	d="
M405.569641,250.630936 
	C401.321899,251.131012 400.611359,249.718292 401.045624,245.772934 
	C402.340637,234.008011 409.157135,227.905701 419.945862,224.672913 
	C427.350555,222.454147 434.485992,219.336853 442.546356,216.320099 
	C441.849396,232.936661 441.696686,248.638718 436.678070,263.887482 
	C433.438141,273.731842 429.000488,282.684265 421.117432,289.608978 
	C419.128906,291.355774 417.026093,293.083221 414.710449,294.324524 
	C409.415924,297.162628 401.524139,293.596619 400.501007,287.702911 
	C400.237030,286.182220 401.751099,283.553345 403.196045,282.700928 
	C406.262238,280.892120 409.820160,279.916962 413.730194,278.382721 
	C410.135010,271.707550 403.524170,274.953339 398.114349,272.979706 
	C402.422882,266.460388 409.218292,268.778564 415.062561,266.368042 
	C409.524963,265.308533 403.987366,264.249023 396.856384,262.884674 
	C401.950226,258.558044 405.992218,255.124847 410.034180,251.691666 
	C409.606903,251.194199 409.179657,250.696732 408.752380,250.199265 
	C407.815094,250.327271 406.877838,250.455261 405.569641,250.630936 
z"/>
<path fill="#F4F5F4" opacity="1.000000" stroke="none" 
	d="
M410.169861,345.922791 
	C406.696838,340.536621 405.990082,333.758209 399.652802,329.824463 
	C400.965210,328.777649 402.369476,327.583984 403.847809,326.490417 
	C413.176453,319.589417 422.689880,312.920776 431.739166,305.672119 
	C433.916412,303.928070 434.572327,300.284668 436.136566,297.088409 
	C441.178833,338.282959 429.845459,376.069672 414.069336,414.450348 
	C413.162537,412.271545 412.562286,411.359955 412.407654,410.378143 
	C410.023773,395.245331 407.379639,380.140839 405.593658,364.936035 
	C405.174255,361.365509 407.699738,357.449066 409.053009,353.105560 
	C411.329193,354.622314 412.436188,355.359955 413.543182,356.097626 
	C413.892456,355.877625 414.241699,355.657623 414.590973,355.437622 
	C413.169647,352.378876 411.748322,349.320129 410.169861,345.922791 
z"/>
<path fill="#F6F7F6" opacity="1.000000" stroke="none" 
	d="
M369.694397,369.789703 
	C369.259186,368.417755 368.823944,367.045807 368.539001,365.176086 
	C368.361969,364.048523 368.034637,363.418732 367.707275,362.788971 
	C367.563965,362.393219 367.420654,361.997498 367.444763,361.146667 
	C367.288361,360.060516 366.964478,359.429443 366.640594,358.798340 
	C366.511169,358.399445 366.381714,358.000519 366.424805,357.150085 
	C366.283630,356.064575 365.969910,355.430573 365.656189,354.796570 
	C365.535797,354.395630 365.415405,353.994690 365.485046,353.153564 
	C365.405853,352.071320 365.136627,351.429199 364.867401,350.787109 
	C364.661560,349.773010 364.455719,348.758881 364.466431,347.148132 
	C364.389771,345.295929 364.096527,344.040375 363.803284,342.784851 
	C363.613220,340.797668 363.423157,338.810486 363.488037,336.105713 
	C363.444794,333.252991 363.146576,331.117828 362.848328,328.982697 
	C362.764954,319.589813 362.681580,310.196930 362.983215,300.536743 
	C363.973114,300.853363 364.578003,301.437286 365.182892,302.021210 
	C367.897400,305.079285 370.241821,308.605164 373.399414,311.103241 
	C381.251495,317.315308 389.474213,323.058929 397.724487,329.120209 
	C393.314575,337.921387 388.644073,347.242645 383.973572,356.563934 
	C384.186249,356.820282 384.398895,357.076630 384.611572,357.332977 
	C386.134583,356.230957 387.657623,355.128967 389.976135,353.451355 
	C391.466705,356.812500 392.883270,360.006714 393.954376,363.872681 
	C393.594482,365.519714 393.580048,366.494965 393.565613,367.470215 
	C393.450989,368.413696 393.336334,369.357208 392.885986,370.898712 
	C392.585846,372.160950 392.621460,372.825134 392.657043,373.489349 
	C392.534454,374.424225 392.411835,375.359131 391.942078,376.916443 
	C391.578613,378.513428 391.562256,379.487976 391.545929,380.462524 
	C391.434692,381.408508 391.323456,382.354462 390.875763,383.897461 
	C390.571533,385.158173 390.603760,385.821808 390.636017,386.485474 
	C390.515808,387.422089 390.395569,388.358704 389.928223,389.916656 
	C389.563690,391.510437 389.546265,392.482910 389.528870,393.455353 
	C389.419861,394.403809 389.310822,395.352295 388.863403,396.896423 
	C388.556396,398.155060 388.587799,398.818054 388.619202,399.481018 
	C388.502502,400.419403 388.385834,401.357819 387.919434,402.915344 
	C387.551300,404.506073 387.532867,405.477631 387.514404,406.449188 
	C387.406036,407.400024 387.297699,408.350891 386.846802,409.894653 
	C386.536255,411.150391 386.568237,411.813171 386.600220,412.475952 
	C386.503815,413.117310 386.407410,413.758636 385.915588,414.664429 
	C385.342346,414.955566 385.164520,414.982269 384.986725,415.008942 
	C384.565063,414.023529 384.143433,413.038116 383.752441,411.393311 
	C383.041748,409.091736 382.300354,407.449585 381.558990,405.807434 
	C377.853149,394.768372 374.147278,383.729279 370.578186,372.177612 
	C370.374817,371.039948 370.034607,370.414825 369.694397,369.789703 
z"/>
<path fill="#F9F8F8" opacity="1.000000" stroke="none" 
	d="
M504.645020,492.985657 
	C504.645050,481.828583 504.645050,471.168396 504.645050,459.887085 
	C511.845032,459.978455 518.973694,457.582367 524.097534,465.692474 
	C527.598389,471.233704 532.628662,475.808655 538.084839,482.093842 
	C538.084839,473.817230 538.084839,467.005402 538.084839,459.976440 
	C543.482910,459.976440 548.058838,459.976440 552.900085,459.976440 
	C552.900085,475.812897 552.900085,491.381500 552.900085,507.497894 
	C548.576599,507.497894 544.437256,507.730804 540.351013,507.367035 
	C538.987976,507.245697 537.554565,505.782654 536.506348,504.615845 
	C531.184937,498.692291 525.979553,492.664551 519.808960,485.617371 
	C519.808960,493.451508 519.808960,500.096802 519.808960,507.127869 
	C514.543030,507.127869 509.969238,507.127869 504.644958,507.127869 
	C504.644958,502.674286 504.644958,498.078430 504.645020,492.985657 
z"/>
<path fill="#F8F7F7" opacity="1.000000" stroke="none" 
	d="
M278.180298,459.704041 
	C282.274597,459.704071 285.906067,459.704071 290.826233,459.704071 
	C285.675964,465.635162 281.478516,470.863342 276.838074,475.663177 
	C274.107483,478.487518 274.146851,480.577515 276.272888,483.749298 
	C281.267090,491.200043 285.839844,498.933258 291.166077,507.488373 
	C284.845001,507.488373 279.273285,507.641327 273.724182,507.355286 
	C272.654938,507.300110 271.414093,505.683563 270.699280,504.514160 
	C268.017487,500.127045 265.520752,495.626862 262.986084,491.223572 
	C254.717468,493.740479 253.946991,500.078674 254.741898,507.249298 
	C249.257385,507.249298 244.324326,507.249298 239.002869,507.249298 
	C239.002869,491.661041 239.002869,476.102325 239.002869,460.122559 
	C243.863663,460.122559 248.910706,460.122559 254.618317,460.122559 
	C254.618317,465.744446 254.618317,471.434906 254.618317,477.125366 
	C255.062820,477.325806 255.507309,477.526215 255.951813,477.726624 
	C259.488800,473.520569 263.313110,469.517975 266.478058,465.048401 
	C269.360046,460.978333 272.680359,458.783417 278.180298,459.704041 
z"/>
<path fill="#F7F5F5" opacity="1.000000" stroke="none" 
	d="
M318.207733,459.696716 
	C329.986084,459.696747 341.291779,459.696747 352.799988,459.696747 
	C352.799988,463.757690 352.799988,467.380768 352.799988,471.723785 
	C345.487305,471.723785 338.213776,471.835663 330.946381,471.673096 
	C327.675964,471.599945 326.196655,472.499329 327.466125,476.411926 
	C334.423187,476.411926 341.500641,476.411926 348.919708,476.411926 
	C348.919708,480.624237 348.919708,484.344086 348.919708,488.582581 
	C341.735718,488.582581 334.657288,488.582581 327.287292,488.582581 
	C327.287292,490.997192 327.287292,492.904694 327.287292,495.400452 
	C335.887268,495.400452 344.449554,495.400452 353.341797,495.400452 
	C353.341797,499.555206 353.341797,503.143036 353.341797,507.138550 
	C339.398560,507.138550 325.372498,507.138550 311.138306,507.138550 
	C311.138306,491.395721 311.138306,475.822266 311.138306,459.696686 
	C313.500549,459.696686 315.617828,459.696686 318.207733,459.696716 
z"/>
<path fill="#F9F8F8" opacity="1.000000" stroke="none" 
	d="
M641.763733,470.076172 
	C641.763794,466.468689 641.763794,463.346832 641.763794,459.975159 
	C656.034912,459.975159 669.778809,459.975159 683.734985,459.975159 
	C683.734985,463.833862 683.734985,467.439392 683.734985,471.713806 
	C676.428711,471.713806 669.317078,471.666626 662.206970,471.747009 
	C660.428650,471.767059 657.514038,470.893402 658.126099,474.188721 
	C658.318970,475.227356 660.828674,476.451996 662.328247,476.522400 
	C668.105713,476.793915 673.903442,476.632568 679.847717,476.632568 
	C679.847717,480.819550 679.847717,484.427734 679.847717,488.644287 
	C672.569702,488.644287 665.498962,488.644287 658.175171,488.644287 
	C658.175171,491.019409 658.175171,492.790894 658.175171,495.232544 
	C666.608643,495.232544 675.156799,495.232544 684.059082,495.232544 
	C684.059082,499.466583 684.059082,503.049316 684.059082,507.086792 
	C670.232605,507.086792 656.227112,507.086792 641.763672,507.086792 
	C641.763672,494.801117 641.763672,482.681488 641.763733,470.076172 
z"/>
<path fill="#F8F7F7" opacity="1.000000" stroke="none" 
	d="
M463.983246,471.717804 
	C461.333160,471.717804 459.189087,471.717804 456.982300,471.717804 
	C455.331726,475.502350 456.541504,476.746338 460.197968,476.662933 
	C466.143219,476.527313 472.093842,476.626373 478.283417,476.626373 
	C478.283417,480.799103 478.283417,484.379913 478.283417,488.546844 
	C471.010956,488.546844 463.935577,488.546844 456.548523,488.546844 
	C456.548523,491.013824 456.548523,492.904724 456.548523,495.444214 
	C465.156891,495.444214 473.731842,495.444214 482.533569,495.444214 
	C482.533569,499.673157 482.533569,503.270752 482.533569,507.204437 
	C468.558533,507.204437 454.646942,507.204437 440.422791,507.204437 
	C440.422791,491.526855 440.422791,475.952789 440.422791,460.039307 
	C454.134399,460.039307 467.875153,460.039307 481.987915,460.039307 
	C481.987915,463.725433 481.987915,467.427124 481.987915,471.717804 
	C476.050201,471.717804 470.269745,471.717804 463.983246,471.717804 
z"/>
<path fill="#F6F5F5" opacity="1.000000" stroke="none" 
	d="
M591.530762,493.769958 
	C595.066284,494.364288 598.292480,494.823944 601.524536,494.868805 
	C602.306335,494.879669 603.716248,493.535370 603.734558,492.787292 
	C603.754395,491.975616 602.639893,490.705078 601.750610,490.386139 
	C599.419373,489.550110 596.914673,489.214386 594.527893,488.513000 
	C590.398682,487.299561 586.000793,486.537689 582.260498,484.557220 
	C573.753296,480.052673 573.462952,468.001984 581.912537,463.351471 
	C592.028381,457.783875 602.714050,458.040070 613.030273,463.145630 
	C617.522217,465.368744 619.118835,469.246277 618.654419,474.698547 
	C614.759888,474.698547 610.797852,474.830139 606.855286,474.610748 
	C605.800293,474.552063 604.567993,473.623352 603.823120,472.748291 
	C600.480225,468.820923 596.463196,468.669403 591.742676,473.194122 
	C593.889221,474.177856 595.631592,475.259949 597.528259,475.788788 
	C602.006653,477.037476 606.651978,477.738251 611.057129,479.185883 
	C616.715576,481.045471 620.433167,484.849823 620.619141,491.207977 
	C620.806824,497.621765 617.587463,503.068146 611.526672,505.365753 
	C602.135010,508.926086 592.551392,508.674255 583.293091,504.880676 
	C577.412964,502.471283 575.282776,497.384338 575.237915,490.574310 
	C579.743713,490.574310 584.022217,490.386627 588.262207,490.707184 
	C589.313293,490.786652 590.239807,492.513397 591.530762,493.769958 
z"/>
<path fill="#F7F5F5" opacity="1.000000" stroke="none" 
	d="
M377.405579,490.550537 
	C380.340454,490.550751 382.860596,490.351318 385.324341,490.637390 
	C386.548218,490.779541 387.986023,491.547455 388.776703,492.492645 
	C391.219116,495.412354 398.128540,496.812927 400.971466,494.457520 
	C403.406616,492.439941 401.938171,490.870026 399.710846,490.230255 
	C396.041351,489.176331 392.234802,488.602753 388.558014,487.570282 
	C385.697296,486.766937 382.732605,485.945435 380.185730,484.484314 
	C372.064117,479.825012 371.675171,468.049133 379.861359,463.484131 
	C390.100983,457.774048 400.954254,457.907867 411.399750,463.282501 
	C415.450378,465.366669 417.479828,469.216919 417.299622,474.689423 
	C412.887512,474.689423 408.630005,474.796417 404.386780,474.598297 
	C403.547821,474.559113 402.820618,473.257660 401.941772,472.694519 
	C400.335571,471.665283 398.664764,470.004791 397.002228,469.982208 
	C394.959137,469.954468 392.896881,471.334595 390.842926,472.106201 
	C392.494568,473.357178 393.970306,475.138794 395.832062,475.756012 
	C400.700928,477.370087 405.836304,478.191895 410.681152,479.863617 
	C415.439819,481.505585 418.411255,485.114807 418.743164,490.291168 
	C419.107452,495.972198 417.445862,501.215759 412.242920,503.954895 
	C401.503082,509.609070 390.300537,509.266235 379.751831,503.706665 
	C376.889191,502.197937 375.312225,497.829956 373.693970,494.507050 
	C372.291443,491.627106 373.768799,490.137268 377.405579,490.550537 
z"/>
<path fill="#F8F7F7" opacity="1.000000" stroke="none" 
	d="
M217.774551,507.310699 
	C214.084793,507.496979 210.755951,507.441467 207.432999,507.556366 
	C204.321915,507.663879 201.400681,507.862030 200.684555,503.628296 
	C200.545746,502.807678 198.818390,501.745575 197.768982,501.680634 
	C193.957855,501.444855 190.118790,501.483063 186.300949,501.655273 
	C185.333862,501.698883 183.680328,502.505829 183.576202,503.158783 
	C182.777710,508.166168 179.168304,507.634216 175.655121,507.550446 
	C172.546631,507.476318 169.434952,507.534912 165.567810,507.534912 
	C167.610641,501.863953 169.366837,496.924072 171.168610,492.000854 
	C174.654068,482.477112 178.280380,473.002655 181.594864,463.420074 
	C182.578156,460.577240 183.960281,459.647430 186.958130,459.627777 
	C201.478378,459.532623 201.484726,459.437744 206.483536,473.034149 
	C210.155579,483.021790 213.833084,493.007599 217.433578,503.021027 
	C217.897980,504.312592 217.914215,505.765259 217.774551,507.310699 
M195.646164,484.702850 
	C194.604904,481.368958 193.563644,478.035065 192.522369,474.701202 
	C192.165344,474.754303 191.808319,474.807434 191.451294,474.860535 
	C190.045425,479.522583 188.639542,484.184631 187.080429,489.354858 
	C190.532593,489.354858 193.387558,489.354858 196.634537,489.354858 
	C196.356216,487.920105 196.116638,486.685059 195.646164,484.702850 
z"/>
<path fill="#F7F6F6" opacity="1.000000" stroke="none" 
	d="
M151.131912,480.044800 
	C151.660812,483.739685 151.816376,487.202362 151.997833,491.241394 
	C145.251785,491.241394 138.866150,491.241394 131.847321,491.241394 
	C131.847321,496.818207 131.847321,501.867645 131.847321,507.218781 
	C126.290169,507.218781 121.360535,507.218781 116.014870,507.218781 
	C116.014870,491.606232 116.014870,475.933868 116.014870,459.978394 
	C128.807266,459.978394 141.546875,459.978394 154.641922,459.978394 
	C154.641922,463.659607 154.641922,467.227844 154.641922,471.497589 
	C147.228149,471.497589 139.705048,471.497589 131.929626,471.497589 
	C131.929626,474.433777 131.929626,476.677521 131.929626,479.812592 
	C138.273315,479.812592 144.515945,479.812592 151.131912,480.044800 
z"/>
<path fill="#F2F0EA" opacity="1.000000" stroke="none" 
	d="
M458.377594,296.726715 
	C460.658203,297.578033 463.638550,298.088196 465.544922,299.796753 
	C488.807587,320.645691 516.328430,334.487518 544.124146,347.883209 
	C546.662354,349.106445 547.980591,350.515106 547.881653,353.539673 
	C547.642212,360.863556 547.734375,368.198242 547.776245,375.953552 
	C545.609802,370.499847 543.354248,364.623444 541.114136,358.741089 
	C540.438599,356.967224 539.806152,355.176941 538.878662,352.641357 
	C535.786621,361.179688 533.028137,368.796967 530.269653,376.414276 
	C529.660583,376.266449 529.051453,376.118652 528.442383,375.970856 
	C528.315430,374.964020 528.188477,373.957184 528.491211,372.496582 
	C529.154968,370.956909 529.389038,369.870941 529.623047,368.785004 
	C529.703552,368.390778 529.784058,367.996582 530.121887,366.978149 
	C529.836548,362.434540 529.293823,358.515167 528.751099,354.595764 
	C526.747314,352.251007 524.743591,349.906250 522.384155,347.114136 
	C521.372742,346.301300 520.716980,345.935822 520.423706,345.772369 
	C520.226868,348.357574 520.041199,350.795532 519.855591,353.233459 
	C513.348206,346.519836 505.911224,341.197357 496.852020,337.387238 
	C497.386444,341.325714 497.839600,344.665466 498.292755,348.005219 
	C497.985748,348.102295 497.678741,348.199371 497.371704,348.296478 
	C496.637024,347.326111 495.900848,346.356903 495.167877,345.385223 
	C484.048828,330.644897 472.931061,315.903625 461.810150,301.164703 
	C460.742645,299.749908 459.656036,298.349518 458.377594,296.726715 
z"/>
<path fill="#F3F1EC" opacity="1.000000" stroke="none" 
	d="
M252.334167,375.599792 
	C251.967911,367.884491 251.603531,359.907440 251.846664,351.948914 
	C251.891968,350.466034 254.119202,348.573334 255.776627,347.690216 
	C271.629822,339.243256 288.018402,331.701508 303.353180,322.413757 
	C314.951233,315.389282 325.193787,306.139984 336.152252,298.033142 
	C337.973755,296.685608 340.372345,296.118134 342.480255,295.523804 
	C341.970154,296.572571 341.484070,297.287720 340.640442,298.114746 
	C340.167419,298.816528 340.051910,299.406433 339.968567,299.999176 
	C340.000732,300.002014 339.950500,299.963867 339.950500,299.963867 
	C338.790649,300.819672 337.390228,301.479889 336.509857,302.562866 
	C330.661957,309.756683 324.925385,317.041016 318.637970,324.627502 
	C317.761292,325.653442 317.399261,326.347809 317.037231,327.042175 
	C312.742371,333.119263 308.447479,339.196350 303.653534,345.568268 
	C302.553497,345.900909 301.952515,345.938690 301.351532,345.976471 
	C301.445465,344.994934 301.539398,344.013367 301.980743,342.484100 
	C302.932983,340.243469 303.537750,338.550568 304.142548,336.857666 
	C303.836731,336.667297 303.530945,336.476898 303.225159,336.286530 
	C302.394226,336.867126 301.563293,337.447723 300.732361,338.028320 
	C293.825409,342.907867 286.918457,347.787415 279.476868,352.696716 
	C279.116669,350.572510 279.291107,348.418549 279.524506,345.536407 
	C278.482971,346.243927 277.716522,346.764557 276.950104,347.285187 
	C274.931488,349.576294 272.912842,351.867371 270.415833,354.587952 
	C269.811798,355.802521 269.686188,356.587585 269.560608,357.372681 
	C269.459106,358.027435 269.357605,358.682159 268.942993,359.899872 
	C268.826202,361.978455 269.022583,363.494110 269.218964,365.009735 
	C269.276276,365.379150 269.333588,365.748566 269.256409,366.776733 
	C268.877625,369.548920 268.633331,371.662323 268.389038,373.775726 
	C265.911224,367.071045 263.433441,360.366333 260.527863,352.504089 
	C257.676605,360.662903 255.111237,368.003693 252.334167,375.599792 
z"/>
<path fill="#E6E5E3" opacity="1.000000" stroke="none" 
	d="
M340.997955,298.002869 
	C341.484070,297.287720 341.970154,296.572571 342.512207,295.789215 
	C346.329926,289.055389 352.115540,284.739044 358.986938,281.471008 
	C350.067261,295.264893 341.890350,309.612366 337.401031,325.720154 
	C336.908752,327.486481 337.367920,329.672058 337.864838,331.535461 
	C341.638977,345.687866 345.605988,359.789001 349.353821,373.948212 
	C350.928040,379.895508 352.117249,385.944733 353.481476,391.947601 
	C352.793091,392.485504 352.104706,393.023407 351.416321,393.561310 
	C351.240631,392.633942 351.182404,391.665100 350.871918,390.785309 
	C344.264374,372.062347 337.565979,353.371002 331.089142,334.603119 
	C330.396759,332.596863 330.381592,329.962341 331.048370,327.949188 
	C334.126740,318.654968 337.557709,309.477570 340.406403,300.111084 
	C339.950500,299.963867 340.000732,300.002014 340.338593,300.135071 
	C340.783630,299.513031 340.890808,298.757965 340.997955,298.002869 
z"/>
<path fill="#E8E7E5" opacity="1.000000" stroke="none" 
	d="
M441.971558,283.229797 
	C447.074585,286.988983 452.125610,291.128418 457.254883,295.619873 
	C457.524384,297.535370 457.422852,299.207123 457.954529,300.644714 
	C461.349518,309.824554 465.036560,318.899597 468.257538,328.138153 
	C468.998352,330.263062 468.938995,333.127167 468.158417,335.250671 
	C460.887787,355.029663 453.377686,374.720612 445.952881,394.443085 
	C445.844421,394.731201 445.939362,395.095886 445.705078,395.362915 
	C448.671509,373.822235 456.500000,353.476959 461.319672,332.398682 
	C462.012054,329.370697 462.191223,325.559326 460.954926,322.870483 
	C455.285828,310.540619 449.024384,298.483307 442.993164,286.319458 
	C442.563110,285.452118 442.274139,284.514801 441.971558,283.229797 
z"/>
<path fill="#EFA300" opacity="1.000000" stroke="none" 
	d="
M372.310913,250.792694 
	C366.802094,246.541840 364.726440,242.699692 364.599152,236.707016 
	C369.663849,238.179291 374.744446,239.408249 379.638184,241.159500 
	C383.355377,242.489731 383.449249,245.869568 382.700470,249.113632 
	C381.907654,252.548294 379.239563,252.710556 376.416138,252.122589 
	C375.131378,251.855026 373.894958,251.355438 372.310913,250.792694 
z"/>
<path fill="#BC7B01" opacity="1.000000" stroke="none" 
	d="
M316.536346,192.338318 
	C316.110382,191.539490 315.684448,190.740662 315.258514,189.941833 
	C316.438873,189.790787 317.709015,189.277817 318.785645,189.544937 
	C329.071747,192.096848 339.300476,194.882599 349.600037,197.376602 
	C353.720001,198.374237 357.975311,198.813217 362.172333,199.485825 
	C362.195831,199.489594 362.303497,199.198837 362.305023,199.044937 
	C362.306641,198.885391 362.226776,198.725021 362.088837,198.290375 
	C363.877167,198.774780 365.759186,199.533859 367.641174,200.292923 
	C367.530396,200.756271 367.419586,201.219620 367.308777,201.682968 
	C365.994476,201.606995 364.639923,201.710831 363.372009,201.427322 
	C350.097931,198.459198 336.839142,195.422958 323.571960,192.423904 
	C321.964172,192.060471 320.332001,191.804993 318.353455,191.747025 
	C317.995789,191.994568 318.031952,192.029190 318.075562,191.745392 
	C317.729584,191.651596 317.339935,191.841614 316.849548,192.111954 
	C316.748779,192.192291 316.536346,192.338318 316.536346,192.338318 
z"/>
<path fill="#9A6001" opacity="1.000000" stroke="none" 
	d="
M377.855560,134.867264 
	C384.373840,136.697937 391.040405,139.073486 397.878815,140.746445 
	C400.571503,141.405151 403.648010,140.495041 406.939026,140.384460 
	C400.682281,142.536987 394.036194,144.604385 387.390106,146.671799 
	C387.140106,146.028671 386.890106,145.385559 386.640076,144.742447 
	C388.946564,143.568344 391.253021,142.394257 394.428284,140.777908 
	C388.443237,138.711472 383.257935,136.921158 377.855560,134.867264 
z"/>
<path fill="#9A6001" opacity="1.000000" stroke="none" 
	d="
M364.313934,178.874695 
	C365.065674,178.235458 366.091431,177.902100 367.247009,177.526535 
	C363.392792,175.946533 359.708893,174.436356 355.921906,172.592758 
	C363.451752,174.352448 371.084717,176.445541 378.717651,178.538651 
	C378.716217,178.752625 378.714752,178.966599 378.713287,179.180573 
	C374.004852,179.180573 369.296387,179.180573 364.313934,178.874695 
z"/>
<path fill="#9A6001" opacity="1.000000" stroke="none" 
	d="
M440.880341,173.433929 
	C438.454315,174.857422 435.639648,176.199020 432.534180,177.679230 
	C433.475067,177.900986 434.098694,178.047958 435.027008,178.372162 
	C430.380096,178.986252 425.428558,179.423096 420.476990,179.859955 
	C420.439514,179.387924 420.402039,178.915909 420.364532,178.443878 
	C427.073608,176.746597 433.782654,175.049316 440.880341,173.433929 
z"/>
<path fill="#9A6001" opacity="1.000000" stroke="none" 
	d="
M451.286560,198.385178 
	C458.493103,196.195602 465.988251,194.187164 473.884949,192.285477 
	C466.716064,194.450272 459.145660,196.508286 451.286560,198.385178 
z"/>
<path fill="#988A8A" opacity="1.000000" stroke="none" 
	d="
M268.360504,374.112946 
	C268.633331,371.662323 268.877625,369.548920 269.272583,367.056824 
	C270.600403,370.691589 271.777557,374.705078 272.954681,378.718536 
	C272.587433,378.915863 272.220184,379.113159 271.852936,379.310486 
	C270.679291,377.690369 269.505615,376.070282 268.360504,374.112946 
z"/>
<path fill="#BC7B01" opacity="1.000000" stroke="none" 
	d="
M342.173401,209.310272 
	C337.205566,207.420670 332.113403,205.209183 326.942993,202.674774 
	C331.926147,204.564056 336.987610,206.776230 342.173401,209.310272 
z"/>
<path fill="#7F6D6C" opacity="1.000000" stroke="none" 
	d="
M528.677795,355.015564 
	C529.293823,358.515167 529.836548,362.434540 530.148376,366.677338 
	C529.479858,363.145599 529.042175,359.290466 528.677795,355.015564 
z"/>
<path fill="#7F6D6C" opacity="1.000000" stroke="none" 
	d="
M519.909058,353.573425 
	C520.041199,350.795532 520.226868,348.357574 520.423706,345.772369 
	C520.716980,345.935822 521.372742,346.301300 522.075684,346.921814 
	C522.288147,348.988800 522.657349,350.819763 522.490417,352.600525 
	C522.442444,353.112610 520.847961,353.479767 519.909058,353.573425 
z"/>
<path fill="#9A6001" opacity="1.000000" stroke="none" 
	d="
M440.504700,161.092926 
	C442.245911,164.611588 445.619720,168.084152 443.221771,172.873947 
	C442.051361,169.066071 441.232361,165.267380 440.504700,161.092926 
z"/>
<path fill="#988A8A" opacity="1.000000" stroke="none" 
	d="
M277.191772,347.695251 
	C277.716522,346.764557 278.482971,346.243927 279.524506,345.536407 
	C279.291107,348.418549 279.116669,350.572510 279.251709,352.898010 
	C279.115356,353.593140 278.669495,354.116760 278.223633,354.640381 
	C277.853699,354.032745 277.195984,353.436981 277.170319,352.815155 
	C277.105865,351.251495 277.326874,349.676056 277.191772,347.695251 
z"/>
<path fill="#9A6001" opacity="1.000000" stroke="none" 
	d="
M435.868134,198.296204 
	C436.680939,198.971008 437.144012,199.616959 437.791595,200.464783 
	C435.968109,201.199234 433.960114,201.731796 431.952148,202.264374 
	C431.761810,201.801880 431.571472,201.339401 431.381134,200.876907 
	C432.760223,200.007050 434.139313,199.137192 435.868134,198.296204 
z"/>
<path fill="#9A6001" opacity="1.000000" stroke="none" 
	d="
M355.917053,169.765060 
	C356.624603,166.459808 357.634888,162.952820 358.926636,159.218903 
	C358.211975,162.515762 357.215881,166.039536 355.917053,169.765060 
z"/>
<path fill="#9A6001" opacity="1.000000" stroke="none" 
	d="
M440.096375,200.490677 
	C442.659485,199.646683 445.611664,198.966751 448.963470,198.443497 
	C446.403870,199.285019 443.444641,199.969879 440.096375,200.490677 
z"/>
<path fill="#B0A6A5" opacity="1.000000" stroke="none" 
	d="
M365.303284,301.739136 
	C364.578003,301.437286 363.973114,300.853363 363.081360,300.134033 
	C362.794525,298.844147 362.794525,297.689697 362.794525,296.535248 
	C363.208374,296.463043 363.622223,296.390839 364.036072,296.318665 
	C364.498596,298.031433 364.961121,299.744232 365.303284,301.739136 
z"/>
<path fill="#9A6001" opacity="1.000000" stroke="none" 
	d="
M439.289032,178.461685 
	C441.469635,177.088654 444.030579,175.440933 445.341492,179.735046 
	C443.300720,179.547913 441.439789,179.107986 439.289032,178.461685 
z"/>
<path fill="#BC7B01" opacity="1.000000" stroke="none" 
	d="
M345.296295,217.745361 
	C344.185730,215.511993 343.202454,213.000626 342.289673,210.108032 
	C343.381256,212.307007 344.402435,214.887192 345.296295,217.745361 
z"/>
<path fill="#9A6001" opacity="1.000000" stroke="none" 
	d="
M354.868286,179.190781 
	C355.663940,174.994644 358.570038,177.775421 361.056915,178.063278 
	C359.288544,178.561798 357.282074,178.806305 354.868286,179.190781 
z"/>
<path fill="#B0A6A5" opacity="1.000000" stroke="none" 
	d="
M362.667694,329.293762 
	C363.146576,331.117828 363.444794,333.252991 363.507935,335.674774 
	C363.010925,333.842560 362.748993,331.723663 362.667694,329.293762 
z"/>
<path fill="#988A8A" opacity="1.000000" stroke="none" 
	d="
M301.109711,338.202515 
	C301.563293,337.447723 302.394226,336.867126 303.225159,336.286530 
	C303.530945,336.476898 303.836731,336.667297 304.142548,336.857666 
	C303.537750,338.550568 302.932983,340.243469 302.067383,342.124207 
	C301.700073,341.000244 301.593567,339.688507 301.109711,338.202515 
z"/>
<path fill="#988A8A" opacity="1.000000" stroke="none" 
	d="
M301.141663,346.157471 
	C301.952515,345.938690 302.553497,345.900909 303.463623,345.855652 
	C303.297852,346.971375 302.822906,348.094574 302.347961,349.217773 
	C302.014221,349.189667 301.680450,349.161591 301.346680,349.133514 
	C301.208374,348.201843 301.070068,347.270172 301.141663,346.157471 
z"/>
<path fill="#9A6001" opacity="1.000000" stroke="none" 
	d="
M416.095795,136.567566 
	C417.691040,135.728638 419.649780,134.972183 421.970764,134.365601 
	C420.375122,135.227005 418.417175,135.938522 416.095795,136.567566 
z"/>
<path fill="#BC7B01" opacity="1.000000" stroke="none" 
	d="
M360.850891,279.189178 
	C360.138489,277.358307 359.690033,275.375061 359.341614,272.965576 
	C359.999390,274.705139 360.557129,276.870972 360.850891,279.189178 
z"/>
<path fill="#BC7B01" opacity="1.000000" stroke="none" 
	d="
M343.592072,239.783539 
	C342.771851,238.196121 341.974884,236.246841 341.317932,233.919266 
	C342.177094,235.501190 342.896210,237.461426 343.592072,239.783539 
z"/>
<path fill="#988A8A" opacity="1.000000" stroke="none" 
	d="
M269.424255,364.747986 
	C269.022583,363.494110 268.826202,361.978455 268.882324,360.225586 
	C269.299713,361.487640 269.464600,362.986938 269.424255,364.747986 
z"/>
<path fill="#B0A6A5" opacity="1.000000" stroke="none" 
	d="
M381.499268,406.147217 
	C382.300354,407.449585 383.041748,409.091736 383.668945,411.080536 
	C382.849701,409.780457 382.144592,408.133759 381.499268,406.147217 
z"/>
<path fill="#9A6001" opacity="1.000000" stroke="none" 
	d="
M435.413269,144.100983 
	C436.173126,145.333344 436.865479,146.921432 437.386078,148.747391 
	C436.591461,147.475754 435.968628,145.966248 435.413269,144.100983 
z"/>
<path fill="#9A6001" opacity="1.000000" stroke="none" 
	d="
M360.797546,154.169861 
	C360.887421,152.711319 361.231140,151.081192 361.853638,149.222427 
	C361.772095,150.661957 361.411774,152.330124 360.797546,154.169861 
z"/>
<path fill="#B0A6A5" opacity="1.000000" stroke="none" 
	d="
M363.651520,343.121521 
	C364.096527,344.040375 364.389771,345.295929 364.466309,346.758087 
	C363.999664,345.795868 363.749725,344.627014 363.651520,343.121521 
z"/>
<path fill="#BC7B01" opacity="1.000000" stroke="none" 
	d="
M319.798828,195.749268 
	C318.807983,195.039963 317.782532,194.004684 316.646729,192.653870 
	C316.536346,192.338318 316.748779,192.192291 317.120178,192.174500 
	C317.671722,192.114197 317.851837,192.071686 318.031952,192.029190 
	C318.031952,192.029190 317.995789,191.994568 317.978577,191.976440 
	C318.562286,193.113312 319.163239,194.268311 319.798828,195.749268 
z"/>
<path fill="#9A6001" opacity="1.000000" stroke="none" 
	d="
M446.561523,187.121613 
	C446.720093,188.126663 446.740173,189.555481 446.445435,191.044006 
	C446.228058,189.917603 446.325531,188.731476 446.561523,187.121613 
z"/>
<path fill="#B0A6A5" opacity="1.000000" stroke="none" 
	d="
M393.781769,367.300110 
	C393.580048,366.494965 393.594482,365.519714 393.867401,364.262085 
	C394.083221,365.029785 394.040588,366.079926 393.781769,367.300110 
z"/>
<path fill="#7F6D6C" opacity="1.000000" stroke="none" 
	d="
M529.332520,368.926910 
	C529.389038,369.870941 529.154968,370.956909 528.574341,372.124451 
	C528.499146,371.160339 528.770508,370.114563 529.332520,368.926910 
z"/>
<path fill="#B0A6A5" opacity="1.000000" stroke="none" 
	d="
M391.764282,380.295135 
	C391.562256,379.487976 391.578613,378.513428 391.856628,377.259949 
	C392.073090,378.029938 392.027863,379.078857 391.764282,380.295135 
z"/>
<path fill="#B0A6A5" opacity="1.000000" stroke="none" 
	d="
M389.747803,393.288910 
	C389.546265,392.482910 389.563690,391.510437 389.842712,390.260681 
	C390.058472,391.029755 390.012604,392.076111 389.747803,393.288910 
z"/>
<path fill="#B0A6A5" opacity="1.000000" stroke="none" 
	d="
M387.734863,406.285004 
	C387.532867,405.477631 387.551300,404.506073 387.833008,403.259644 
	C388.049255,404.030090 388.002289,405.075470 387.734863,406.285004 
z"/>
<path fill="#B0A6A5" opacity="1.000000" stroke="none" 
	d="
M384.916870,415.263916 
	C385.164520,414.982269 385.342346,414.955566 385.787720,414.963318 
	C385.954651,415.497894 385.854034,415.998047 385.753418,416.498169 
	C385.451294,416.171722 385.149170,415.845276 384.916870,415.263916 
z"/>
<path fill="#B0A6A5" opacity="1.000000" stroke="none" 
	d="
M386.804169,412.348694 
	C386.568237,411.813171 386.536255,411.150391 386.758545,410.242828 
	C387.011230,410.739166 387.009674,411.480286 386.804169,412.348694 
z"/>
<path fill="#B0A6A5" opacity="1.000000" stroke="none" 
	d="
M392.855804,373.355957 
	C392.621460,372.825134 392.585846,372.160950 392.799072,371.244629 
	C393.050140,371.735870 393.052368,372.479218 392.855804,373.355957 
z"/>
<path fill="#B0A6A5" opacity="1.000000" stroke="none" 
	d="
M369.605225,370.083069 
	C370.034607,370.414825 370.374817,371.039948 370.526489,371.809845 
	C370.063965,371.428589 369.790009,370.902496 369.605225,370.083069 
z"/>
<path fill="#B0A6A5" opacity="1.000000" stroke="none" 
	d="
M390.837708,386.355103 
	C390.603760,385.821808 390.571533,385.158173 390.789093,384.244263 
	C391.039062,384.737549 391.039246,385.481140 390.837708,386.355103 
z"/>
<path fill="#9A6001" opacity="1.000000" stroke="none" 
	d="
M369.188232,135.868500 
	C369.504395,135.336975 370.118347,134.822891 371.042694,134.429977 
	C370.730743,134.996078 370.108398,135.441010 369.188232,135.868500 
z"/>
<path fill="#B0A6A5" opacity="1.000000" stroke="none" 
	d="
M388.821411,399.351715 
	C388.587799,398.818054 388.556396,398.155060 388.776245,397.243927 
	C389.026215,397.737976 389.024933,398.480194 388.821411,399.351715 
z"/>
<path fill="#BC7B01" opacity="1.000000" stroke="none" 
	d="
M355.220825,254.475983 
	C354.543823,254.551193 353.807190,254.309143 352.951843,253.790680 
	C353.609161,253.729095 354.385162,253.943909 355.220825,254.475983 
z"/>
<path fill="#9A6001" opacity="1.000000" stroke="none" 
	d="
M427.862640,134.675659 
	C428.474060,134.604141 429.237610,134.796417 430.122253,135.286926 
	C429.500488,135.369934 428.757629,135.154678 427.862640,134.675659 
z"/>
<path fill="#9A6001" opacity="1.000000" stroke="none" 
	d="
M438.465942,154.031097 
	C438.898895,154.364822 439.225372,155.005737 439.384216,155.815842 
	C438.930878,155.436127 438.645142,154.887207 438.465942,154.031097 
z"/>
<path fill="#9A6001" opacity="1.000000" stroke="none" 
	d="
M353.754089,183.219025 
	C353.560974,182.698700 353.584778,182.063034 353.866028,181.210846 
	C354.072662,181.697449 354.021820,182.400543 353.754089,183.219025 
z"/>
<path fill="#9A6001" opacity="1.000000" stroke="none" 
	d="
M445.419189,182.035828 
	C445.842255,182.379974 446.145081,183.024002 446.273041,183.830994 
	C445.831757,183.441208 445.565338,182.888458 445.419189,182.035828 
z"/>
<path fill="#9A6001" opacity="1.000000" stroke="none" 
	d="
M352.988647,186.874390 
	C352.759338,186.401428 352.756378,185.817871 352.977051,185.114105 
	C353.205444,185.583862 353.210236,186.173843 352.988647,186.874390 
z"/>
<path fill="#9A6001" opacity="1.000000" stroke="none" 
	d="
M445.786469,191.137329 
	C445.593903,191.729065 445.087250,192.329224 444.266876,192.942383 
	C444.459564,192.352188 444.965973,191.748978 445.786469,191.137329 
z"/>
<path fill="#BC7B01" opacity="1.000000" stroke="none" 
	d="
M326.045288,201.611252 
	C325.438202,201.540619 324.737762,201.180054 323.976929,200.505890 
	C324.594971,200.568649 325.273468,200.944977 326.045288,201.611252 
z"/>
<path fill="#BC7B01" opacity="1.000000" stroke="none" 
	d="
M343.200287,220.717178 
	C343.456299,220.161240 344.034088,219.654419 344.926758,219.154755 
	C344.668427,219.696701 344.095245,220.231506 343.200287,220.717178 
z"/>
<path fill="#BC7B01" opacity="1.000000" stroke="none" 
	d="
M347.597900,245.848328 
	C347.068024,245.588272 346.563354,245.029495 346.077118,244.168213 
	C346.604767,244.426987 347.113953,244.988297 347.597900,245.848328 
z"/>
<path fill="#BC7B01" opacity="1.000000" stroke="none" 
	d="
M350.726593,250.805298 
	C350.186829,250.534821 349.652344,249.960953 349.154297,249.069153 
	C349.704468,249.334778 350.218170,249.918335 350.726593,250.805298 
z"/>
<path fill="#B0A6A5" opacity="1.000000" stroke="none" 
	d="
M367.612488,363.080139 
	C368.034637,363.418732 368.361969,364.048523 368.497498,364.818604 
	C368.043030,364.429718 367.780365,363.900513 367.612488,363.080139 
z"/>
<path fill="#BC7B01" opacity="1.000000" stroke="none" 
	d="
M356.222961,257.821899 
	C355.794464,257.404510 355.512390,256.797913 355.363098,255.857208 
	C355.787048,256.226318 356.078247,256.929504 356.222961,257.821899 
z"/>
<path fill="#BC7B01" opacity="1.000000" stroke="none" 
	d="
M357.304169,262.825745 
	C356.872192,262.402710 356.579773,261.782684 356.431702,260.823364 
	C356.865234,261.198914 357.154480,261.913818 357.304169,262.825745 
z"/>
<path fill="#BC7B01" opacity="1.000000" stroke="none" 
	d="
M358.253235,266.822693 
	C357.813690,266.415649 357.515717,265.815552 357.339294,264.877869 
	C357.772156,265.236725 358.083466,265.933197 358.253235,266.822693 
z"/>
<path fill="#BC7B01" opacity="1.000000" stroke="none" 
	d="
M359.234009,270.821198 
	C358.794067,270.420013 358.494720,269.826843 358.311096,268.897644 
	C358.742737,269.250793 359.058655,269.940002 359.234009,270.821198 
z"/>
<path fill="#988A8A" opacity="1.000000" stroke="none" 
	d="
M317.332367,326.965027 
	C317.399261,326.347809 317.761292,325.653442 318.425232,324.892212 
	C318.360596,325.512878 317.994049,326.200378 317.332367,326.965027 
z"/>
<path fill="#B0A6A5" opacity="1.000000" stroke="none" 
	d="
M364.739990,351.063538 
	C365.136627,351.429199 365.405853,352.071320 365.476288,352.838074 
	C365.055878,352.421814 364.834198,351.880920 364.739990,351.063538 
z"/>
<path fill="#988A8A" opacity="1.000000" stroke="none" 
	d="
M269.817108,357.205505 
	C269.686188,356.587585 269.811798,355.802521 270.228271,354.881653 
	C270.370636,355.510071 270.222137,356.274200 269.817108,357.205505 
z"/>
<path fill="#B0A6A5" opacity="1.000000" stroke="none" 
	d="
M365.541992,355.083130 
	C365.969910,355.430573 366.283630,356.064575 366.402130,356.834961 
	C365.947174,356.437469 365.687469,355.903564 365.541992,355.083130 
z"/>
<path fill="#B0A6A5" opacity="1.000000" stroke="none" 
	d="
M366.530273,359.086700 
	C366.964478,359.429443 367.288361,360.060516 367.418671,360.830322 
	C366.956726,360.437683 366.688354,359.906372 366.530273,359.086700 
z"/>
<path fill="#452A2A" opacity="1.000000" stroke="none" 
	d="
M195.761612,485.076416 
	C196.116638,486.685059 196.356216,487.920105 196.634537,489.354858 
	C193.387558,489.354858 190.532593,489.354858 187.080429,489.354858 
	C188.639542,484.184631 190.045425,479.522583 191.451294,474.860535 
	C191.808319,474.807434 192.165344,474.754303 192.522369,474.701202 
	C193.563644,478.035065 194.604904,481.368958 195.761612,485.076416 
z"/>
<path fill="#230303" opacity="1.000000" stroke="none" 
	d="
M340.640442,298.114746 
	C340.890808,298.757965 340.783630,299.513031 340.306396,300.132233 
	C340.051910,299.406433 340.167419,298.816528 340.640442,298.114746 
z"/>
<path fill="#230303" opacity="1.000000" stroke="none" 
	d="
M318.075562,191.745392 
	C317.851837,192.071686 317.671722,192.114197 317.220947,192.094162 
	C317.339935,191.841614 317.729584,191.651596 318.075562,191.745392 
z"/>
</svg>