<svg width="121" height="122" viewBox="0 0 121 122" fill="none" xmlns="http://www.w3.org/2000/svg">
<circle cx="56" cy="56" r="52.5" fill="#FFB000" fill-opacity="0.14"/>
<circle cx="56" cy="56" r="52.5" stroke="#FF7A3D" stroke-width="7"/>
<circle cx="56" cy="56" r="52.5" stroke="url(#paint0_linear_0_1)" stroke-opacity="0.2" stroke-width="7"/>
<mask id="mask0_0_1" style="mask-type:alpha" maskUnits="userSpaceOnUse" x="9" y="9" width="94" height="94">
<rect x="9" y="9" width="94" height="94" fill="#D9D9D9"/>
</mask>
<g mask="url(#mask0_0_1)">
<path d="M56 71.6667C60.8958 71.6667 65.0573 69.9531 68.4844 66.526C71.9114 63.0989 73.625 58.9375 73.625 54.0417C73.625 49.1458 71.9114 44.9844 68.4844 41.5573C65.0573 38.1302 60.8958 36.4167 56 36.4167C51.1042 36.4167 46.9427 38.1302 43.5156 41.5573C40.0885 44.9844 38.375 49.1458 38.375 54.0417C38.375 58.9375 40.0885 63.0989 43.5156 66.526C46.9427 69.9531 51.1042 71.6667 56 71.6667ZM56 64.6167C53.0625 64.6167 50.5656 63.5885 48.5094 61.5323C46.4531 59.476 45.425 56.9792 45.425 54.0417C45.425 51.1042 46.4531 48.6073 48.5094 46.551C50.5656 44.4948 53.0625 43.4667 56 43.4667C58.9375 43.4667 61.4344 44.4948 63.4906 46.551C65.5469 48.6073 66.575 51.1042 66.575 54.0417C66.575 56.9792 65.5469 59.476 63.4906 61.5323C61.4344 63.5885 58.9375 64.6167 56 64.6167ZM56 83.4167C46.4694 83.4167 37.7875 80.7566 29.9542 75.4365C22.1208 70.1163 16.4417 62.9847 12.9167 54.0417C16.4417 45.0986 22.1208 37.967 29.9542 32.6469C37.7875 27.3267 46.4694 24.6667 56 24.6667C65.5305 24.6667 74.2125 27.3267 82.0458 32.6469C89.8792 37.967 95.5583 45.0986 99.0833 54.0417C95.5583 62.9847 89.8792 70.1163 82.0458 75.4365C74.2125 80.7566 65.5305 83.4167 56 83.4167ZM56 75.5833C63.3764 75.5833 70.1489 73.6413 76.3177 69.7573C82.4864 65.8733 87.2028 60.6347 90.4667 54.0417C87.2028 47.4486 82.4864 42.2101 76.3177 38.326C70.1489 34.442 63.3764 32.5 56 32.5C48.6236 32.5 41.851 34.442 35.6823 38.326C29.5135 42.2101 24.7972 47.4486 21.5333 54.0417C24.7972 60.6347 29.5135 65.8733 35.6823 69.7573C41.851 73.6413 48.6236 75.5833 56 75.5833Z" fill="#FF7A3D"/>
</g>
<line x1="117.483" y1="117.933" x2="94.5671" y2="95.0169" stroke="#FF7A3D" stroke-width="7" stroke-linecap="round"/>
<defs>
<linearGradient id="paint0_linear_0_1" x1="0.80444" y1="-1.72862e-06" x2="111.196" y2="112" gradientUnits="userSpaceOnUse">
<stop offset="0.451923" stop-color="#FFB000"/>
<stop offset="1" stop-color="#FF7A3D"/>
</linearGradient>
</defs>
</svg>
