<?xml version="1.0" encoding="UTF-8"?>
<svg version="1.1" xmlns="http://www.w3.org/2000/svg" width="1536" height="1024">
<path d="M0 0 C1.01416992 0.26490234 1.01416992 0.26490234 2.04882812 0.53515625 C15.47268595 4.19251408 29.48899038 10.76048348 40 20 C41.36125 21.18335938 41.36125 21.18335938 42.75 22.390625 C66.59002177 43.48061676 82.00389665 69.83244991 85 102 C86.3106383 126.10665365 81.96076784 148.34455581 69.98388672 169.43164062 C69.61150879 170.08970703 69.23913086 170.74777344 68.85546875 171.42578125 C68.52184326 171.99723877 68.18821777 172.56869629 67.84448242 173.1574707 C66.73359732 175.58124921 66.16370109 177.31122512 66 180 C67.79918464 182.6405481 67.79918464 182.6405481 70.52050781 185.12231445 C71.2592086 185.85028229 71.2592086 185.85028229 72.01283264 186.59295654 C73.08447372 187.64511267 74.16303828 188.69025247 75.24756622 189.72912025 C76.96770895 191.37725469 78.66879427 193.04307339 80.3661499 194.71464539 C83.97762819 198.26433816 87.61274722 201.78925227 91.25 205.3125 C95.45169052 209.38638615 99.64315617 213.47008446 103.8151474 217.57439232 C105.48602959 219.20932263 107.17168237 220.82787373 108.85870361 222.44612122 C115.04226978 228.46179001 119.01496769 232.974442 120.43359375 241.65234375 C120.44608493 248.95968561 118.84027044 254.91627781 113.8125 260.375 C106.9716428 264.32749527 100.76001877 266.05095772 93 264 C85.16939151 260.49015568 79.41744324 253.80115178 73.5 247.79296875 C72.41350219 246.70086543 71.3263325 245.60943016 70.23852539 244.51863098 C67.3976789 241.66641094 64.56596396 238.80529436 61.73614502 235.94213867 C58.83874098 233.01387109 55.93266814 230.0942338 53.02734375 227.17382812 C47.34311079 221.45756343 41.66850903 215.73185744 36 210 C32.72615979 211.29458729 29.55807591 212.6650761 26.41015625 214.2421875 C16.45217023 219.16054072 6.92463691 223.68950208 -4 226 C-4.76554199 226.17152588 -5.53108398 226.34305176 -6.31982422 226.51977539 C-32.55349481 231.93334115 -59.2332134 227.84382595 -83 216 C-84.02738281 215.49339844 -85.05476563 214.98679687 -86.11328125 214.46484375 C-113.97840662 200.01197789 -132.85867222 173.48397731 -142.3125 144.1875 C-150.9725185 113.91444386 -146.55730591 83.41853057 -132.23828125 55.57421875 C-117.75305583 29.95652796 -94.13523042 9.867427 -66 1 C-60.06073544 -0.63520408 -54.05490576 -1.87939058 -48 -3 C-47.04738281 -3.19207031 -46.09476562 -3.38414062 -45.11328125 -3.58203125 C-29.88321063 -5.62672078 -14.76742814 -3.8814302 0 0 Z " fill="#E7231A" transform="translate(432,378)"/>
<path d="M0 0 C1.04027344 0.33902344 2.08054687 0.67804688 3.15234375 1.02734375 C24.01177257 8.7297084 38.97462206 26.03523703 48.19921875 45.73828125 C56.58019673 64.79705229 56.67787367 87.76094532 49.17041016 107.14160156 C39.74529797 129.28167539 23.27725508 145.81422965 1 155 C-17.32397679 161.94554304 -40.05007784 161.88045363 -58 154 C-59.58748047 153.33097656 -59.58748047 153.33097656 -61.20703125 152.6484375 C-81.4922313 143.32609909 -95.31869501 127.24919774 -104 107 C-111.37453189 86.34918395 -111.56703533 63.72135075 -102.26367188 43.68261719 C-91.40696062 21.64495763 -74.5345266 6.86810848 -51.43359375 -1.25390625 C-34.59723986 -6.20983811 -16.57396675 -5.61107478 0 0 Z " fill="#F7F5F5" transform="translate(429,413)"/>
<path d="M0 0 C1.01416992 0.26490234 1.01416992 0.26490234 2.04882812 0.53515625 C15.47268595 4.19251408 29.48899038 10.76048348 40 20 C41.36125 21.18335938 41.36125 21.18335938 42.75 22.390625 C66.59002177 43.48061676 82.00389665 69.83244991 85 102 C86.3106383 126.10665365 81.96076784 148.34455581 69.98388672 169.43164062 C69.61150879 170.08970703 69.23913086 170.74777344 68.85546875 171.42578125 C68.52184326 171.99723877 68.18821777 172.56869629 67.84448242 173.1574707 C66.73359732 175.58124921 66.16370109 177.31122512 66 180 C67.79918464 182.6405481 67.79918464 182.6405481 70.52050781 185.12231445 C71.2592086 185.85028229 71.2592086 185.85028229 72.01283264 186.59295654 C73.08447372 187.64511267 74.16303828 188.69025247 75.24756622 189.72912025 C76.96770895 191.37725469 78.66879427 193.04307339 80.3661499 194.71464539 C83.97762819 198.26433816 87.61274722 201.78925227 91.25 205.3125 C95.45169052 209.38638615 99.64315617 213.47008446 103.8151474 217.57439232 C105.48602959 219.20932263 107.17168237 220.82787373 108.85870361 222.44612122 C115.04226978 228.46179001 119.01496769 232.974442 120.43359375 241.65234375 C120.44608493 248.95968561 118.84027044 254.91627781 113.8125 260.375 C106.9716428 264.32749527 100.76001877 266.05095772 93 264 C85.16939151 260.49015568 79.41744324 253.80115178 73.5 247.79296875 C72.41350219 246.70086543 71.3263325 245.60943016 70.23852539 244.51863098 C67.3976789 241.66641094 64.56596396 238.80529436 61.73614502 235.94213867 C58.83874098 233.01387109 55.93266814 230.0942338 53.02734375 227.17382812 C47.34311079 221.45756343 41.66850903 215.73185744 36 210 C32.72615979 211.29458729 29.55807591 212.6650761 26.41015625 214.2421875 C16.45217023 219.16054072 6.92463691 223.68950208 -4 226 C-4.76554199 226.17152588 -5.53108398 226.34305176 -6.31982422 226.51977539 C-32.55349481 231.93334115 -59.2332134 227.84382595 -83 216 C-84.02738281 215.49339844 -85.05476563 214.98679687 -86.11328125 214.46484375 C-113.97840662 200.01197789 -132.85867222 173.48397731 -142.3125 144.1875 C-150.9725185 113.91444386 -146.55730591 83.41853057 -132.23828125 55.57421875 C-117.75305583 29.95652796 -94.13523042 9.867427 -66 1 C-60.06073544 -0.63520408 -54.05490576 -1.87939058 -48 -3 C-47.04738281 -3.19207031 -46.09476562 -3.38414062 -45.11328125 -3.58203125 C-29.88321063 -5.62672078 -14.76742814 -3.8814302 0 0 Z M-115 47 C-118.51452165 51.38940585 -121.32182117 56.0650535 -124 61 C-124.31759277 61.58040039 -124.63518555 62.16080078 -124.96240234 62.75878906 C-132.01769068 75.9031842 -136.66570802 91.0284948 -137 106 C-137.03867187 106.83917969 -137.07734375 107.67835938 -137.1171875 108.54296875 C-137.84604119 135.95596572 -127.87575371 163.02708056 -109.234375 183.12109375 C-95.66761171 197.33862048 -81.45149213 207.15820479 -63 214 C-62.03199463 214.36013184 -62.03199463 214.36013184 -61.04443359 214.72753906 C-36.23568674 223.39091098 -5.80425781 219.07423819 17.41162109 208.03125 C20.6974943 206.37705755 23.53876939 204.60877539 26.4140625 202.3125 C29.66717214 200.03608627 32.37498724 198.77274445 36.35757446 198.44076538 C42.59075345 199.75993575 47.1262183 205.97092724 51.3671875 210.42578125 C52.53313114 211.61293535 53.70139303 212.79781666 54.87185669 213.98051453 C57.94105835 217.09346776 60.97948169 220.23480427 64.01190186 223.38354492 C67.70398501 227.20613611 71.43134313 230.99427399 75.15321541 234.78782177 C78.04755712 237.73931721 80.93648321 240.69554476 83.81027222 243.66706848 C84.33917557 244.21240738 84.86807892 244.75774628 85.41300964 245.3196106 C86.83975661 246.79151258 88.26383376 248.26600115 89.68771362 249.74067688 C92.84048076 252.82122942 94.93093437 254.308853 99.3125 254.4375 C102.56263674 254.33659706 104.84668609 253.95494127 107.5625 252.125 C110.42335574 248.45723623 111.10924795 246.38769244 110.72901917 241.79347229 C109.83968382 238.38569678 108.50577036 236.87329298 106.09350586 234.32397461 C105.27623016 233.45481415 104.45895447 232.58565369 103.61691284 231.69015503 C99.30363811 227.25616031 94.96050305 222.85792073 90.56640625 218.50390625 C89.59727255 217.53919316 88.62844217 216.57417527 87.65989685 215.60887146 C84.63028947 212.59053411 81.59668569 209.57623402 78.5625 206.5625 C75.01758807 203.0412719 71.47437753 199.51836374 67.93531609 195.99125481 C66.52700772 194.58940183 65.11564757 193.19061685 63.70423889 191.79188538 C62.85252609 190.9434758 62.00081329 190.09506622 61.12329102 189.22094727 C60.37322281 188.47611588 59.6231546 187.73128448 58.85035706 186.96388245 C55.92795069 183.862177 54.36513392 181.47595369 54.4921875 177.12890625 C55.40779532 173.29039653 57.81948327 170.29932491 59.99609375 167.05859375 C67.41323579 155.73769273 71.14158134 144.09576855 74 131 C74.30550781 129.60394531 74.30550781 129.60394531 74.6171875 128.1796875 C78.14891584 98.84471947 71.29892831 70.34690854 53 47 C49.46878212 42.86032611 45.80030898 38.89270119 42 35 C41.23042969 34.20464844 40.46085938 33.40929687 39.66796875 32.58984375 C29.76663879 23.02586745 17.1264622 16.00249503 4 12 C2.97519531 11.60941406 2.97519531 11.60941406 1.9296875 11.2109375 C-41.24406975 -5.04078101 -85.96219526 14.23221176 -115 47 Z " fill="#FEFDFD" transform="translate(432,378)"/>
<path d="M0 0 C5.77476255 4.8409926 11.02478026 10.08854244 15.74145508 15.9699707 C16.21711914 16.52426758 16.6927832 17.07856445 17.18286133 17.6496582 C18.36645508 19.1574707 18.36645508 19.1574707 19.74145508 21.9699707 C16.3113703 36.0179022 2.88180939 47.53079673 -8.94677734 54.91430664 C-26.2826244 65.29942717 -46.00870057 68.9004271 -65.69604492 64.0324707 C-84.80194475 58.81286715 -98.89219589 47.12393798 -111.25854492 31.9699707 C-111.72389648 31.40407227 -112.18924805 30.83817383 -112.66870117 30.25512695 C-114.41439114 27.92951285 -115.30569259 26.53389374 -115.05932617 23.5871582 C-111.01328136 10.36349955 -94.87359073 -1.43734656 -83.1262207 -8.04858398 C-77.70193607 -10.89899238 -72.04901814 -13.052958 -66.25854492 -15.0300293 C-65.49541992 -15.29686523 -64.73229492 -15.56370117 -63.94604492 -15.83862305 C-42.15700367 -22.00934762 -17.09389084 -13.74243243 0 0 Z " fill="#E41E15" transform="translate(449.258544921875,465.030029296875)"/>
<path d="M0 0 C5.4561218 3.18784644 8.7485787 7.01917361 10.7734375 13.09375 C11.3604843 19.08162734 10.12139737 23.21002872 6.7734375 28.09375 C2.69187407 32.40976355 -1.11792316 34.23343641 -7.0390625 34.40625 C-11.8927106 34.34973008 -14.50826196 33.36939572 -18.2265625 30.09375 C-21.70695596 26.32332375 -24.18229606 23.0251719 -24.26171875 17.765625 C-23.8308051 10.74488561 -21.97296776 6.57221329 -16.6640625 1.78125 C-11.71271935 -1.64660295 -5.60367415 -2.28079369 0 0 Z " fill="#F6F3F3" transform="translate(408.2265625,468.90625)"/>
<path d="M0 0 C6.53279418 2.96017236 11.81778634 8.24945621 16 14 C12.40714907 21.86590179 5.53396433 27.5691725 -1 33 C-1.66 32.67 -2.32 32.34 -3 32 C-2.25130208 30.33984375 -1.50260417 28.6796875 -0.75390625 27.01953125 C1.04366735 22.20426933 1.13521919 17.60959717 1.125 12.5 C1.12886719 10.56640625 1.12886719 10.56640625 1.1328125 8.59375 C1.02135753 5.57790967 0.70804225 2.92207912 0 0 Z " fill="#F8F0F0" transform="translate(432,474)"/>
<path d="M0 0 C1.28980821 2.57961641 0.69469721 3.23519834 0 6 C-0.62634361 14.63532743 -0.33772162 21.90594019 3.22265625 29.92578125 C3.47917969 30.61027344 3.73570312 31.29476563 4 32 C3.67 32.66 3.34 33.32 3 34 C-3.4424306 28.31481712 -9.54533282 22.66474693 -15 16 C-11.17885573 9.63142621 -6.19741134 4.13160756 0 0 Z " fill="#F8F0EF" transform="translate(370,474)"/>
<path d="M0 0 C0.495 1.485 0.495 1.485 1 3 C-0.98 2.67 -2.96 2.34 -5 2 C-5 1.34 -5 0.68 -5 0 C-10.04404853 -0.09658816 -14.9330461 -0.05779066 -19.9375 0.625 C-25.50826569 1.27152766 -30.57459026 0.24805053 -36 -1 C-36 -1.33 -36 -1.66 -36 -2 C-25.1435723 -4.67102586 -10.41967491 -4.28423181 0 0 Z " fill="#D51D19" transform="translate(423,451)"/>
<path d="M0 0 C3.82887897 1.27629299 4.50016327 2.82223968 6.75 6.125 C10.12292261 10.91579934 13.68411798 15.04827052 18 19 C17.67 19.66 17.34 20.32 17 21 C16.54109375 20.51789062 16.0821875 20.03578125 15.609375 19.5390625 C14.99578125 18.90742187 14.3821875 18.27578125 13.75 17.625 C13.14671875 16.99851562 12.5434375 16.37203125 11.921875 15.7265625 C10.0299412 14.02689839 8.31798691 13.01540134 6 12 C6 10.68 6 9.36 6 8 C4.68 8.33 3.36 8.66 2 9 C0.50178941 5.62902617 0 3.79557881 0 0 Z " fill="#D91F18" transform="translate(330,533)"/>
<path d="M0 0 C0.33 0.99 0.66 1.98 1 3 C0.43410156 3.55429687 -0.13179688 4.10859375 -0.71484375 4.6796875 C-1.44832031 5.40414063 -2.18179687 6.12859375 -2.9375 6.875 C-3.66839844 7.59429687 -4.39929688 8.31359375 -5.15234375 9.0546875 C-7.05667999 10.87027192 -7.05667999 10.87027192 -8 13 C-8.66 13 -9.32 13 -10 13 C-10.103125 13.61875 -10.20625 14.2375 -10.3125 14.875 C-11 17 -11 17 -14 19 C-14.33 19.99 -14.66 20.98 -15 22 C-15.66 22 -16.32 22 -17 22 C-13.77174258 13.05177191 -6.76564013 6.44932449 0 0 Z " fill="#ED4F47" transform="translate(328,414)"/>
<path d="M0 0 C0 0.33 0 0.66 0 1 C-7.41226226 2.18982084 -13.69860023 1.67959957 -21 0 C-21 -0.33 -21 -0.66 -21 -1 C-14.27877883 -3.01636635 -6.74990607 -1.24340375 0 0 Z " fill="#DC2922" transform="translate(408,450)"/>
<path d="M0 0 C0 0.33 0 0.66 0 1 C-0.61488281 1.12117188 -1.22976563 1.24234375 -1.86328125 1.3671875 C-2.67152344 1.53476562 -3.47976563 1.70234375 -4.3125 1.875 C-5.51326172 2.11863281 -5.51326172 2.11863281 -6.73828125 2.3671875 C-9.25301118 2.94478999 -9.25301118 2.94478999 -12 5 C-12 4.34 -12 3.68 -12 3 C-13.0725 3.350625 -14.145 3.70125 -15.25 4.0625 C-18.78720743 4.94680186 -19.74811124 5.02880551 -23 4 C-15.15025438 1.22642321 -8.33589794 -0.14372238 0 0 Z " fill="#EE615B" transform="translate(388,386)"/>
<path d="M0 0 C2.19798983 0.98530579 3.82052548 1.81304737 5.5 3.5625 C6.91497631 5.17128284 6.91497631 5.17128284 9.0625 5.4375 C11 6 11 6 12.125 8 C12.41375 8.66 12.7025 9.32 13 10 C13.66 10.33 14.32 10.66 15 11 C15 11.66 15 12.32 15 13 C11.87729974 11.58884686 9.50346319 9.889376 6.9375 7.625 C6.26589844 7.03976562 5.59429687 6.45453125 4.90234375 5.8515625 C3.02458589 4.0239296 1.51050393 2.13635135 0 0 Z " fill="#CB1B18" transform="translate(345,504)"/>
<path d="M0 0 C-1.32 0.33 -2.64 0.66 -4 1 C-4 1.66 -4 2.32 -4 3 C-6 4.625 -6 4.625 -8 6 C-8 5.01 -8 4.02 -8 3 C-10.47266765 3.34444881 -10.47266765 3.34444881 -13 4 C-13.33 4.66 -13.66 5.32 -14 6 C-14.66 5.34 -15.32 4.68 -16 4 C-13.90049414 3.13444052 -11.7952093 2.28288723 -9.6875 1.4375 C-8.51574219 0.96183594 -7.34398437 0.48617188 -6.13671875 -0.00390625 C-3 -1 -3 -1 0 0 Z " fill="#D41F1A" transform="translate(386,451)"/>
<path d="M0 0 C0.33 0.99 0.66 1.98 1 3 C0.67 3.66 0.34 4.32 0 5 C5.61 5.33 11.22 5.66 17 6 C17 6.33 17 6.66 17 7 C14.04142591 7.05379226 11.08382279 7.09357093 8.125 7.125 C6.86236328 7.15013672 6.86236328 7.15013672 5.57421875 7.17578125 C4.76855469 7.18222656 3.96289062 7.18867188 3.1328125 7.1953125 C2.38918457 7.20578613 1.64555664 7.21625977 0.87939453 7.22705078 C-1 7 -1 7 -3 5 C-2.34 5 -1.68 5 -1 5 C-0.67 3.35 -0.34 1.7 0 0 Z " fill="#BF3531" transform="translate(391,402)"/>
<path d="M0 0 C4.49092377 2.37754788 7.52235713 5.3606063 11 9 C10.67 9.66 10.34 10.32 10 11 C9.54109375 10.51789062 9.0821875 10.03578125 8.609375 9.5390625 C7.99578125 8.90742187 7.3821875 8.27578125 6.75 7.625 C5.84507812 6.68527344 5.84507812 6.68527344 4.921875 5.7265625 C3.0299412 4.02689839 1.31798691 3.01540134 -1 2 C-0.67 1.34 -0.34 0.68 0 0 Z " fill="#CF1410" transform="translate(337,543)"/>
<path d="M0 0 C0.66 0 1.32 0 2 0 C0.66666667 2.66666667 -0.66666667 5.33333333 -2 8 C-2.99 7.34 -3.98 6.68 -5 6 C-3.38405168 3.95880212 -1.7143618 1.95927063 0 0 Z " fill="#FAE9E9" transform="translate(391,471)"/>
<path d="M0 0 C0.66 0.33 1.32 0.66 2 1 C0.02 3.31 -1.96 5.62 -4 8 C-4.99 7.67 -5.98 7.34 -7 7 C-4.69 4.69 -2.38 2.38 0 0 Z " fill="#F6E7E6" transform="translate(348,428)"/>
<path d="M0 0 C0.66 0 1.32 0 2 0 C1.55090939 1.48199902 1.09043436 2.96055236 0.625 4.4375 C0.36976563 5.26121094 0.11453125 6.08492187 -0.1484375 6.93359375 C-1 9 -1 9 -3 10 C-3 8.02 -3 6.04 -3 4 C-2.01 4 -1.02 4 0 4 C0 2.68 0 1.36 0 0 Z " fill="#EE605A" transform="translate(498,528)"/>
<path d="M0 0 C1.25541557 3.76624671 0.37061958 5.37188934 -1 9 C-1.99 9 -2.98 9 -4 9 C-2.80100302 5.9168649 -1.52299523 2.93720508 0 0 Z " fill="#CA1F1B" transform="translate(475,525)"/>
<path d="M0 0 C0 0.66 0 1.32 0 2 C-4.15267176 5.11450382 -4.15267176 5.11450382 -7.3125 4.6875 C-7.869375 4.460625 -8.42625 4.23375 -9 4 C-2.25 0 -2.25 0 0 0 Z " fill="#ED564F" transform="translate(358,394)"/>
<path d="M0 0 C2.375 0.1875 2.375 0.1875 5 1 C6.3125 3.5625 6.3125 3.5625 7 6 C3.63279613 4.60667426 2.0140476 3.0210714 0 0 Z " fill="#ED5049" transform="translate(331,568)"/>
<path d="M0 0 C2.18975773 3.28463659 2.99806563 6.20696275 4 10 C2 8.9375 2 8.9375 0 7 C-0.25 3.3125 -0.25 3.3125 0 0 Z " fill="#FBDBD9" transform="translate(370,498)"/>
<path d="M0 0 C0.33 0 0.66 0 1 0 C1.25 2.3125 1.25 2.3125 1 5 C-1 6.8125 -1 6.8125 -3 8 C-3.66 7.67 -4.32 7.34 -5 7 C-4.360625 6.21625 -3.72125 5.4325 -3.0625 4.625 C-1.01857687 2.20460719 -1.01857687 2.20460719 0 0 Z " fill="#CD241F" transform="translate(417,492)"/>
<path d="M0 0 C0.66 0.33 1.32 0.66 2 1 C1.67 3.31 1.34 5.62 1 8 C-0.5625 6.75 -0.5625 6.75 -2 5 C-1.74853421 2.86254078 -1.54074221 1.54074221 0 0 Z " fill="#D61F16" transform="translate(479,456)"/>
</svg>
